{"glyphs":{"0":{"ha":861,"x_min":56,"x_max":806,"o":"m 806 493 q 780 292 806 386 q 706 129 754 199 q 589 19 658 60 q 431 -21 519 -21 q 272 19 342 -21 q 155 129 203 60 q 81 292 107 199 q 56 493 56 386 q 81 694 56 600 q 155 857 107 788 q 272 967 203 926 q 431 1007 342 1007 q 589 967 519 1007 q 706 857 658 926 q 780 694 754 788 q 806 493 806 600 m 681 493 q 664 654 681 579 q 615 784 647 729 q 537 871 583 839 q 431 903 490 903 q 324 871 371 903 q 246 784 278 839 q 197 654 214 729 q 181 493 181 579 q 197 332 181 407 q 246 202 214 257 q 324 115 278 147 q 431 83 371 83 q 537 115 490 83 q 615 202 583 147 q 664 332 647 257 q 681 493 681 407 z "},"1":{"ha":451,"x_min":14,"x_max":333,"o":"m 208 785 l 14 785 l 14 847 l 167 889 l 250 986 l 333 986 l 333 0 l 208 0 l 208 785 z "},"2":{"ha":667,"x_min":28,"x_max":632,"o":"m 28 833 q 49 865 32 838 q 97 924 65 893 q 181 981 129 956 q 308 1007 233 1007 q 442 988 383 1007 q 539 936 500 969 q 598 857 578 903 q 618 757 618 811 q 584 607 618 671 q 499 493 550 543 q 389 401 449 443 q 278 317 329 360 q 194 223 228 274 q 160 104 160 172 l 632 104 l 597 0 l 35 0 l 35 97 q 69 248 35 185 q 153 362 103 311 q 264 455 204 413 q 374 541 324 497 q 459 635 425 585 q 493 750 493 685 q 478 815 493 786 q 437 863 463 843 q 378 893 411 883 q 308 903 344 903 q 236 887 267 903 q 183 849 206 871 q 144 805 160 828 q 115 768 128 782 l 28 833 z "},"3":{"ha":681,"x_min":0,"x_max":625,"o":"m 625 313 q 602 190 625 250 q 535 83 579 131 q 428 8 492 36 q 285 -21 365 -21 q 177 -10 222 -21 q 99 19 132 1 q 43 57 67 36 q 0 97 19 78 l 82 172 q 163 113 113 142 q 285 83 213 83 q 372 103 332 83 q 440 156 411 124 q 484 230 468 189 q 500 313 500 271 q 481 414 500 371 q 431 485 463 457 q 354 528 399 514 q 257 542 310 542 l 224 503 l 144 551 l 417 875 l 417 882 l 63 882 l 96 986 l 568 986 l 568 913 l 333 632 l 333 625 q 426 608 375 625 q 521 552 476 590 q 595 455 565 514 q 625 313 625 396 z "},"4":{"ha":743,"x_min":21,"x_max":701,"o":"m 465 347 l 465 771 l 456 771 l 160 357 l 160 347 l 465 347 m 21 347 l 472 986 l 590 986 l 590 347 l 701 347 l 701 243 l 590 243 l 590 0 l 465 0 l 465 243 l 21 243 l 21 347 z "},"5":{"ha":667,"x_min":14,"x_max":639,"o":"m 639 313 q 617 187 639 247 q 553 81 596 126 q 449 7 511 35 q 306 -21 386 -21 q 197 -9 243 -21 q 115 22 150 3 q 56 65 81 42 q 14 111 32 89 l 96 186 q 131 149 110 168 q 178 116 151 131 q 238 92 206 101 q 306 83 269 83 q 391 103 353 83 q 456 154 429 122 q 499 227 483 186 q 514 313 514 268 q 475 445 514 392 q 381 524 436 499 q 266 548 326 550 q 164 514 206 546 l 158 472 l 53 472 l 118 986 l 590 986 l 556 882 l 213 882 l 178 611 l 188 611 q 260 640 215 632 q 354 642 304 649 q 455 613 404 636 q 547 551 506 590 q 613 451 588 511 q 639 313 639 392 z "},"6":{"ha":736,"x_min":56,"x_max":708,"o":"m 708 326 q 687 199 708 261 q 624 88 665 136 q 521 9 582 39 q 382 -21 460 -21 q 243 15 304 -21 q 140 119 182 51 q 77 281 99 186 q 56 493 56 376 q 99 765 56 660 q 216 931 143 871 q 383 1013 289 990 q 576 1035 476 1035 l 597 931 q 402 906 485 933 q 265 828 319 879 q 184 707 211 778 q 157 549 157 636 l 167 549 q 200 591 178 569 q 252 631 222 613 q 320 662 282 650 q 403 674 358 674 q 530 644 474 674 q 626 565 586 614 q 687 454 665 517 q 708 326 708 392 m 583 326 q 569 417 583 374 q 527 495 554 461 q 463 549 500 529 q 382 569 426 569 q 301 549 338 569 q 238 495 264 529 q 198 417 213 461 q 183 326 183 374 q 198 235 183 279 q 238 158 213 192 q 301 103 264 124 q 382 83 338 83 q 463 103 426 83 q 527 158 500 124 q 569 235 554 192 q 583 326 583 279 z "},"7":{"ha":611,"x_min":14,"x_max":583,"o":"m 49 986 l 583 986 l 583 882 q 499 742 549 832 q 403 536 449 653 q 324 283 357 419 q 292 0 292 146 l 167 0 q 197 282 167 146 q 271 533 228 418 q 362 736 314 647 q 444 875 410 825 l 444 882 l 14 882 l 49 986 z "},"8":{"ha":806,"x_min":56,"x_max":750,"o":"m 688 743 q 672 664 688 699 q 635 604 657 629 q 587 564 613 579 q 542 543 561 549 l 542 533 q 603 511 567 528 q 672 465 639 494 q 727 390 704 435 q 750 282 750 344 q 725 165 750 219 q 654 68 700 110 q 544 3 608 26 q 403 -21 481 -21 q 261 3 325 -21 q 151 68 197 26 q 81 165 106 110 q 56 282 56 219 q 78 390 56 344 q 134 465 101 435 q 203 511 167 494 q 264 533 239 528 l 264 543 q 219 564 244 549 q 171 604 193 579 q 133 664 149 629 q 118 743 118 699 q 136 846 118 797 q 190 930 154 894 q 279 986 226 965 q 403 1007 332 1007 q 526 986 474 1007 q 615 930 579 965 q 669 846 651 894 q 688 743 688 797 m 563 743 q 519 857 563 811 q 403 903 476 903 q 286 857 329 903 q 243 743 243 811 q 286 629 243 675 q 403 583 329 583 q 519 629 476 583 q 563 743 563 675 m 625 282 q 608 357 625 321 q 560 420 590 393 q 490 463 531 447 q 403 479 450 479 q 315 463 356 479 q 245 420 275 447 q 198 357 215 393 q 181 282 181 321 q 196 207 181 243 q 240 144 211 171 q 310 100 268 117 q 403 83 351 83 q 497 100 456 83 q 566 144 538 117 q 610 207 594 171 q 625 282 625 243 z "},"9":{"ha":750,"x_min":42,"x_max":694,"o":"m 42 688 q 63 815 42 753 q 126 926 85 878 q 229 1005 168 975 q 368 1035 290 1035 q 507 999 446 1035 q 610 895 568 963 q 673 733 651 828 q 694 521 694 638 q 651 249 694 354 q 534 83 607 143 q 367 1 461 24 q 174 -21 274 -21 l 153 83 q 348 108 265 82 q 485 185 431 135 q 566 307 539 236 q 593 465 593 378 l 583 465 q 550 423 572 444 q 498 383 528 401 q 430 352 468 364 q 347 340 392 340 q 220 370 276 340 q 124 449 164 400 q 63 560 85 497 q 42 688 42 622 m 167 688 q 181 597 167 640 q 223 519 196 553 q 287 465 250 485 q 368 444 324 444 q 449 465 413 444 q 512 519 486 485 q 552 597 538 553 q 567 688 567 640 q 552 778 567 735 q 512 856 538 822 q 449 910 486 890 q 368 931 413 931 q 287 910 324 931 q 223 856 250 890 q 181 778 196 822 q 167 688 167 735 z "},"\r":{"ha":833,"x_min":0,"x_max":0,"o":""}," ":{"ha":306,"x_min":0,"x_max":0,"o":""}," ":{"ha":306,"x_min":0,"x_max":0,"o":""},"·":{"ha":549,"x_min":167,"x_max":382,"o":"m 382 379 l 275 271 l 167 379 l 275 486 l 382 379 z "},".":{"ha":313,"x_min":49,"x_max":264,"o":"m 264 74 l 157 -35 l 49 74 l 157 181 l 264 74 z "},"…":{"ha":965,"x_min":56,"x_max":910,"o":"m 271 74 l 164 -35 l 56 74 l 164 181 l 271 74 m 590 74 l 483 -35 l 375 74 l 483 181 l 590 74 m 910 74 l 803 -35 l 694 74 l 803 181 l 910 74 z "},",":{"ha":319,"x_min":49,"x_max":264,"o":"m 125 -181 l 147 35 l 264 74 l 201 -181 l 125 -181 m 157 181 l 264 74 l 157 -35 l 49 74 l 157 181 z "},":":{"ha":313,"x_min":49,"x_max":264,"o":"m 264 74 l 157 -35 l 49 74 l 157 181 l 264 74 m 264 650 l 157 542 l 49 650 l 157 757 l 264 650 z "},";":{"ha":319,"x_min":49,"x_max":264,"o":"m 157 757 l 49 650 l 157 542 l 264 650 l 157 757 m 125 -181 l 147 35 l 264 74 l 201 -181 l 125 -181 m 157 181 l 264 74 l 157 -35 l 49 74 l 157 181 z "},"!":{"ha":438,"x_min":111,"x_max":326,"o":"m 296 1014 l 268 285 l 171 285 l 143 1014 l 296 1014 m 219 181 l 111 74 l 219 -35 l 326 74 l 219 181 z "},"‽":{"ha":617,"x_min":-17,"x_max":511,"o":"m 289 1069 l 261 285 l 164 285 l 136 1069 l 289 1069 m -17 889 q 1 921 -15 897 q 47 970 17 944 q 124 1015 78 996 q 233 1035 169 1035 q 350 1015 299 1035 q 438 959 401 994 q 492 874 474 924 q 511 764 511 824 q 494 656 511 699 q 450 583 476 614 q 393 526 424 551 q 336 470 363 501 q 292 396 310 439 q 275 285 275 353 l 150 285 q 167 428 150 372 q 211 520 185 483 q 268 581 238 557 q 325 630 299 606 q 369 685 351 654 q 386 764 386 715 q 372 843 386 811 q 336 894 358 875 q 287 922 314 914 q 233 931 260 931 q 178 919 204 931 q 133 890 153 907 q 98 854 113 874 q 75 819 83 835 l -17 889 m 213 181 l 104 74 l 213 -35 l 319 74 l 213 181 z "},"¡":{"ha":396,"x_min":90,"x_max":306,"o":"m 121 -278 l 149 451 l 246 451 l 274 -278 l 121 -278 m 197 556 l 306 663 l 197 771 l 90 663 l 197 556 z "},"?":{"ha":611,"x_min":42,"x_max":569,"o":"m 42 903 q 60 935 44 911 q 106 984 75 958 q 182 1029 136 1010 q 292 1049 228 1049 q 408 1028 357 1049 q 496 973 460 1008 q 551 888 532 938 q 569 778 569 838 q 552 664 569 708 q 508 587 535 619 q 451 528 482 554 q 394 471 421 503 q 351 396 368 439 q 333 285 333 353 l 208 285 q 226 428 208 372 q 269 521 243 483 q 326 583 296 558 q 383 634 357 608 q 427 693 410 660 q 444 778 444 726 q 431 857 444 825 q 394 908 417 889 q 345 936 372 928 q 292 944 318 944 q 237 933 263 944 q 191 904 211 921 q 156 868 171 888 q 133 833 142 849 l 42 903 m 271 181 l 163 74 l 271 -35 l 378 74 l 271 181 z "},"¿":{"ha":625,"x_min":56,"x_max":583,"o":"m 583 -167 q 566 -199 582 -175 q 519 -248 550 -222 q 443 -293 489 -274 q 333 -312 397 -312 q 217 -292 268 -312 q 129 -237 165 -272 q 74 -151 93 -201 q 56 -42 56 -101 q 73 72 56 28 q 117 149 90 117 q 174 208 143 182 q 231 265 204 233 q 274 340 257 297 q 292 451 292 383 l 417 451 q 399 309 417 365 q 356 215 382 253 q 299 153 329 178 q 242 102 268 128 q 198 44 215 76 q 181 -42 181 11 q 194 -121 181 -89 q 231 -172 208 -153 q 280 -200 253 -192 q 333 -208 307 -208 q 388 -197 363 -208 q 434 -168 414 -185 q 469 -132 454 -151 q 492 -97 483 -112 l 583 -167 m 354 556 l 463 663 l 354 771 l 247 663 l 354 556 z "},"*":{"ha":749,"x_min":69,"x_max":679,"o":"m 333 635 l 132 493 l 69 601 l 290 706 l 69 808 l 132 917 l 333 775 l 313 1021 l 438 1021 l 417 776 l 617 917 l 679 808 l 458 704 l 679 601 l 617 493 l 417 633 l 438 389 l 313 389 l 333 635 z "},"'":{"ha":264,"x_min":69,"x_max":194,"o":"m 194 986 l 174 632 l 90 632 l 69 986 l 194 986 z "},"\"":{"ha":472,"x_min":69,"x_max":403,"o":"m 194 986 l 174 632 l 90 632 l 69 986 l 194 986 m 403 986 l 382 632 l 299 632 l 278 986 l 403 986 z "},"‚":{"ha":372,"x_min":69,"x_max":308,"o":"m 254 154 q 299 98 290 133 q 288 26 308 63 l 138 -194 l 69 -156 l 160 -8 q 113 53 119 15 q 124 121 107 90 q 177 165 142 151 q 254 154 213 178 z "},"„":{"ha":565,"x_min":64,"x_max":504,"o":"m 197 168 q 252 120 236 153 q 253 47 268 88 l 143 -196 l 69 -169 l 133 -10 q 76 42 89 7 q 76 111 64 78 q 120 165 88 144 q 197 168 153 185 m 433 168 q 488 120 472 153 q 489 47 504 88 l 379 -196 l 306 -169 l 369 -10 q 313 42 325 7 q 312 111 300 78 q 356 165 324 144 q 433 168 389 185 z "},"‘":{"ha":329,"x_min":61,"x_max":265,"o":"m 132 632 q 77 680 93 647 q 76 753 61 713 l 186 996 l 260 969 l 196 810 q 253 758 240 793 q 253 689 265 722 q 209 635 242 656 q 132 632 176 615 z "},"’":{"ha":329,"x_min":64,"x_max":268,"o":"m 197 994 q 252 947 236 979 q 253 874 268 914 l 143 631 l 69 657 l 133 817 q 76 869 89 833 q 76 938 64 904 q 120 991 88 971 q 197 994 153 1011 z "},"“":{"ha":565,"x_min":61,"x_max":501,"o":"m 368 632 q 313 680 329 647 q 313 753 297 713 l 422 996 l 496 969 l 432 810 q 489 758 476 793 q 490 689 501 722 q 445 635 478 656 q 368 632 413 615 m 132 632 q 77 680 93 647 q 76 753 61 713 l 186 996 l 260 969 l 196 810 q 253 758 240 793 q 253 689 265 722 q 209 635 242 656 q 132 632 176 615 z "},"”":{"ha":565,"x_min":64,"x_max":504,"o":"m 197 994 q 252 947 236 979 q 253 874 268 914 l 143 631 l 69 657 l 133 817 q 76 869 89 833 q 76 938 64 904 q 120 991 88 971 q 197 994 153 1011 m 433 994 q 488 947 472 979 q 489 874 504 914 l 379 631 l 306 657 l 369 817 q 313 869 325 833 q 312 938 300 904 q 356 991 324 971 q 433 994 389 1011 z "},"〈":{"ha":533,"x_min":69,"x_max":519,"o":"m 519 840 l 201 368 l 519 -104 l 444 -167 l 69 368 l 444 903 l 519 840 z "},"〉":{"ha":519,"x_min":0,"x_max":450,"o":"m 450 368 l 75 -167 l 0 -104 l 318 368 l 0 840 l 75 903 l 450 368 z "},"‹":{"ha":431,"x_min":56,"x_max":361,"o":"m 361 563 l 194 379 l 194 371 l 361 188 l 292 125 l 56 375 l 292 625 l 361 563 z "},"›":{"ha":431,"x_min":69,"x_max":375,"o":"m 375 375 l 139 125 l 69 188 l 236 371 l 236 379 l 69 563 l 139 625 l 375 375 z "},"«":{"ha":708,"x_min":69,"x_max":653,"o":"m 653 549 l 486 365 l 486 357 l 653 174 l 583 111 l 347 361 l 583 611 l 653 549 m 375 549 l 208 365 l 208 357 l 375 174 l 306 111 l 69 361 l 306 611 l 375 549 z "},"»":{"ha":708,"x_min":56,"x_max":639,"o":"m 361 361 l 125 111 l 56 174 l 222 357 l 222 365 l 56 549 l 125 611 l 361 361 m 639 361 l 403 111 l 333 174 l 500 357 l 500 365 l 333 549 l 403 611 l 639 361 z "},"•":{"ha":583,"x_min":139,"x_max":444,"o":"m 292 556 l 444 403 l 292 250 l 139 403 l 292 556 z "},"-":{"ha":403,"x_min":28,"x_max":375,"o":"m 375 417 l 375 319 l 28 319 l 28 417 l 375 417 z "},"–":{"ha":861,"x_min":49,"x_max":813,"o":"m 813 417 l 813 319 l 49 319 l 49 417 l 813 417 z "},"—":{"ha":1090,"x_min":49,"x_max":1042,"o":"m 1042 417 l 1042 319 l 49 319 l 49 417 l 1042 417 z "},"_":{"ha":708,"x_min":42,"x_max":667,"o":"m 667 -111 l 667 -208 l 42 -208 l 42 -111 l 667 -111 z "},"(":{"ha":369,"x_min":56,"x_max":342,"o":"m 272 -271 q 152 -94 200 -194 q 80 117 104 6 q 56 347 56 229 q 80 577 56 465 q 152 789 104 689 q 272 965 200 889 l 342 896 q 217 626 258 765 q 176 347 176 488 q 217 68 176 207 q 342 -201 258 -71 l 272 -271 z "},")":{"ha":328,"x_min":14,"x_max":300,"o":"m 14 -201 q 138 68 97 -71 q 179 347 179 207 q 138 626 179 488 q 14 896 97 765 l 83 965 q 203 789 156 889 q 276 577 251 689 q 300 347 300 465 q 276 117 300 229 q 203 -94 251 6 q 83 -271 156 -194 l 14 -201 z "},"[":{"ha":431,"x_min":125,"x_max":403,"o":"m 403 -278 l 125 -278 l 125 958 l 403 958 l 403 854 l 250 854 l 250 -174 l 403 -174 l 403 -278 z "},"]":{"ha":431,"x_min":28,"x_max":306,"o":"m 181 -174 l 181 854 l 28 854 l 28 958 l 306 958 l 306 -278 l 28 -278 l 28 -174 l 181 -174 z "},"{":{"ha":472,"x_min":69,"x_max":444,"o":"m 444 -306 q 347 -295 393 -306 q 267 -262 301 -285 q 214 -206 233 -240 q 194 -125 194 -172 q 197 -69 194 -108 q 199 17 199 -31 q 194 116 199 65 q 176 209 190 167 q 137 278 163 251 q 69 306 111 306 l 69 389 q 137 417 111 389 q 176 488 163 444 q 194 585 190 532 q 199 687 199 638 q 197 776 199 736 q 194 833 194 817 q 214 913 194 881 q 267 964 233 944 q 347 992 301 983 q 444 1000 393 1000 l 444 896 q 344 867 382 896 q 306 764 306 838 q 306 712 306 747 q 306 633 307 676 q 299 544 304 590 q 283 458 293 497 q 254 390 272 418 q 208 354 236 361 l 208 340 q 254 306 236 333 q 283 241 272 279 q 299 158 293 203 q 306 72 304 114 q 306 -3 307 31 q 306 -56 306 -37 q 344 -165 306 -129 q 444 -201 382 -201 l 444 -306 z "},"}":{"ha":472,"x_min":28,"x_max":403,"o":"m 28 -201 q 128 -165 90 -201 q 167 -56 167 -129 q 166 -4 167 -39 q 167 72 165 31 q 174 158 168 114 q 190 241 179 203 q 218 306 200 279 q 264 340 236 333 l 264 354 q 218 390 236 361 q 190 458 200 418 q 174 544 179 497 q 167 633 168 590 q 166 712 165 676 q 167 764 167 747 q 128 867 167 838 q 28 896 90 896 l 28 1000 q 126 992 81 1000 q 205 964 171 983 q 258 913 239 944 q 278 833 278 881 q 276 776 278 817 q 274 687 274 736 q 278 585 274 638 q 296 488 282 532 q 335 417 310 444 q 403 389 361 389 l 403 306 q 335 278 361 306 q 296 209 310 251 q 278 116 282 167 q 274 17 274 65 q 276 -69 274 -31 q 278 -125 278 -107 q 258 -206 278 -172 q 205 -262 239 -240 q 126 -295 171 -285 q 28 -306 81 -306 l 28 -201 z "},"/":{"ha":628,"x_min":14,"x_max":614,"o":"m 147 -139 l 14 -139 l 481 1097 l 614 1097 l 147 -139 z "},"\\":{"ha":628,"x_min":14,"x_max":614,"o":"m 147 1097 l 614 -139 l 481 -139 l 14 1097 l 147 1097 z "},"#":{"ha":856,"x_min":56,"x_max":800,"o":"m 374 674 l 554 674 l 615 986 l 724 986 l 663 674 l 800 674 l 800 578 l 643 578 l 610 408 l 758 408 l 758 313 l 590 313 l 529 0 l 421 0 l 482 313 l 301 313 l 240 0 l 132 0 l 193 313 l 56 313 l 56 408 l 213 408 l 246 578 l 97 578 l 97 674 l 265 674 l 326 986 l 435 986 l 374 674 m 501 408 l 535 578 l 354 578 l 321 408 l 501 408 z "},"№":{"ha":1389,"x_min":118,"x_max":1347,"o":"m 1347 792 q 1335 711 1347 750 q 1300 642 1324 672 q 1242 594 1276 613 q 1160 576 1207 576 q 1078 594 1113 576 q 1019 642 1043 613 q 984 711 996 672 q 972 792 972 750 q 984 872 972 833 q 1019 941 996 911 q 1078 989 1043 971 q 1160 1007 1113 1007 q 1242 989 1207 1007 q 1300 941 1276 971 q 1335 872 1324 911 q 1347 792 1347 833 m 1250 792 q 1246 835 1250 813 q 1231 875 1242 857 q 1203 905 1221 893 q 1160 917 1186 917 q 1116 905 1133 917 q 1088 875 1099 893 q 1074 835 1078 857 q 1069 792 1069 813 q 1074 749 1069 771 q 1088 708 1078 726 q 1116 678 1099 690 q 1160 667 1133 667 q 1203 678 1186 667 q 1231 708 1221 690 q 1246 749 1242 726 q 1250 792 1250 771 m 882 986 l 882 0 l 725 0 l 258 792 l 243 792 l 243 0 l 118 0 l 118 986 l 275 986 l 742 208 l 757 208 l 757 986 l 882 986 z "},"§":{"ha":625,"x_min":69,"x_max":556,"o":"m 143 158 q 159 136 149 150 q 188 109 169 122 q 232 86 206 96 q 293 76 258 76 q 391 104 358 76 q 424 181 424 132 q 397 241 424 218 q 332 281 371 264 q 247 316 293 299 q 161 358 200 333 q 96 421 122 383 q 69 518 69 458 q 81 584 69 556 q 110 633 93 613 q 147 667 128 654 q 181 688 167 681 q 158 701 172 692 q 131 726 144 710 q 107 765 117 742 q 97 819 97 788 q 110 885 97 851 q 151 945 124 918 q 219 990 178 972 q 318 1007 261 1007 q 388 997 356 1007 q 445 974 419 988 q 490 944 471 960 q 518 918 508 929 l 444 844 q 429 860 439 850 q 403 882 419 871 q 367 901 388 893 q 318 910 346 910 q 235 885 261 910 q 208 819 208 861 q 234 758 208 781 q 299 717 260 735 q 382 683 338 699 q 465 642 426 667 q 530 579 504 617 q 556 481 556 542 q 542 413 556 442 q 510 364 529 383 q 473 333 492 344 q 443 318 454 322 q 467 303 451 314 q 498 274 483 292 q 524 233 513 257 q 535 181 535 210 q 519 106 535 143 q 472 42 503 69 q 397 -3 442 14 q 293 -21 351 -21 q 217 -11 251 -21 q 154 14 182 -1 q 105 49 126 29 q 69 88 83 68 l 143 158 m 181 518 q 205 448 181 475 q 260 404 229 421 q 323 378 292 388 q 368 361 354 368 q 390 370 376 364 q 415 390 403 376 q 436 426 428 404 q 444 481 444 447 q 416 553 444 522 q 352 603 388 583 q 288 633 317 622 q 256 643 258 643 q 234 633 247 640 q 209 612 221 626 q 189 574 197 597 q 181 518 181 551 z "},"¶":{"ha":819,"x_min":49,"x_max":701,"o":"m 583 0 l 583 889 l 521 889 l 521 0 l 403 0 l 403 444 l 340 444 q 218 465 272 444 q 126 523 164 486 q 69 609 89 560 q 49 715 49 658 q 69 822 49 772 q 126 908 89 872 q 218 965 164 944 q 340 986 272 986 l 701 986 l 701 0 l 583 0 m 174 715 q 185 653 174 685 q 217 597 196 622 q 267 557 238 572 q 333 542 297 542 l 403 542 l 403 889 l 333 889 q 267 874 297 889 q 217 833 238 858 q 185 778 196 808 q 174 715 174 747 z "},"@":{"ha":986,"x_min":0,"x_max":931,"o":"m 403 229 q 286 276 329 229 q 243 396 243 322 q 269 476 243 443 q 337 533 294 510 q 435 569 379 556 q 549 590 490 582 q 522 647 549 619 q 444 674 496 674 q 379 667 404 674 q 326 646 354 660 l 299 736 q 370 761 338 751 q 444 771 403 771 q 522 760 483 771 q 592 725 561 749 q 641 663 622 701 q 660 569 660 624 l 660 417 q 663 366 660 390 q 674 322 665 342 q 695 291 682 303 q 729 279 708 279 q 801 336 782 279 q 819 493 819 393 q 792 655 819 579 q 718 788 765 731 q 606 877 671 844 q 465 910 540 910 q 325 877 390 910 q 213 788 260 844 q 138 655 165 731 q 111 493 111 579 q 138 331 111 407 q 213 199 165 256 q 325 109 260 142 q 465 76 390 76 l 465 -21 q 269 21 356 -21 q 124 133 183 63 q 32 297 64 204 q 0 493 0 390 q 32 694 0 600 q 124 857 64 788 q 269 967 183 926 q 465 1007 356 1007 q 661 967 575 1007 q 807 857 747 926 q 899 694 867 788 q 931 493 931 600 q 885 265 931 347 q 729 182 839 182 q 650 197 682 182 q 597 231 618 211 q 565 272 576 251 q 549 306 553 293 l 542 306 q 528 289 538 301 q 503 263 519 276 q 461 240 486 250 q 403 229 436 229 m 549 493 q 481 488 515 493 q 417 470 446 482 q 372 440 389 458 q 354 396 354 422 q 431 326 354 326 q 501 351 472 326 q 549 410 531 375 l 549 493 z "},"A":{"ha":847,"x_min":-7,"x_max":854,"o":"m 482 986 l 854 0 l 715 0 l 619 264 l 228 264 l 132 0 l -7 0 l 365 986 l 482 986 m 265 368 l 582 368 l 435 796 l 414 796 l 265 368 z "},"B":{"ha":854,"x_min":118,"x_max":806,"o":"m 243 479 l 243 104 l 458 104 q 552 120 511 104 q 622 162 593 136 q 665 222 650 188 q 681 292 681 256 q 664 363 681 329 q 618 422 647 396 q 548 464 589 449 q 458 479 507 479 l 243 479 m 243 882 l 243 583 l 458 583 q 575 627 532 583 q 618 733 618 671 q 605 792 618 765 q 568 839 592 819 q 513 870 544 858 q 444 882 481 882 l 243 882 m 604 533 q 664 513 629 528 q 730 469 699 497 q 783 398 761 442 q 806 292 806 354 q 784 176 806 229 q 721 83 763 122 q 618 22 679 44 q 479 0 557 0 l 118 0 l 118 986 l 444 986 q 570 967 515 986 q 664 915 625 949 q 723 834 703 881 q 743 733 743 788 q 728 656 743 689 q 693 599 714 622 q 648 563 672 576 q 604 543 624 549 l 604 533 z "},"C":{"ha":917,"x_min":56,"x_max":882,"o":"m 882 175 q 724 31 822 83 q 506 -21 626 -21 q 318 19 401 -21 q 176 129 235 60 q 87 292 118 199 q 56 493 56 386 q 87 694 56 600 q 176 857 118 788 q 318 967 235 926 q 506 1007 401 1007 q 655 982 592 1007 q 760 926 718 957 q 824 868 803 894 q 847 839 846 842 l 760 771 q 744 792 760 771 q 695 838 728 813 q 615 883 663 863 q 506 903 568 903 q 370 871 431 903 q 267 784 310 839 q 203 654 225 729 q 181 493 181 579 q 203 332 181 407 q 267 202 225 257 q 370 115 310 147 q 506 83 431 83 q 631 109 576 83 q 724 166 686 135 q 781 223 761 197 q 801 250 801 249 l 882 175 z "},"D":{"ha":938,"x_min":118,"x_max":882,"o":"m 243 882 l 243 104 l 361 104 q 531 134 457 104 q 656 216 606 164 q 731 339 706 268 q 757 493 757 410 q 731 648 757 576 q 656 772 706 719 q 531 853 606 824 q 361 882 457 882 l 243 882 m 118 0 l 118 986 l 361 986 q 586 950 489 986 q 749 849 683 914 q 849 693 815 783 q 882 493 882 603 q 849 293 882 383 q 749 138 815 203 q 586 36 683 72 q 361 0 489 0 l 118 0 z "},"E":{"ha":743,"x_min":118,"x_max":701,"o":"m 667 986 l 667 882 l 243 882 l 243 563 l 590 563 l 556 458 l 243 458 l 243 104 l 701 104 l 701 0 l 118 0 l 118 986 l 667 986 z "},"F":{"ha":694,"x_min":118,"x_max":660,"o":"m 660 986 l 660 882 l 243 882 l 243 563 l 590 563 l 556 458 l 243 458 l 243 0 l 118 0 l 118 986 l 660 986 z "},"G":{"ha":967,"x_min":56,"x_max":936,"o":"m 618 493 l 931 493 q 910 281 936 376 q 831 119 885 186 q 695 15 776 51 q 507 -21 614 -21 q 316 19 400 -21 q 174 129 232 60 q 86 292 117 199 q 56 493 56 386 q 87 694 56 600 q 177 857 118 788 q 319 967 236 926 q 507 1007 403 1007 q 656 982 593 1007 q 762 926 719 957 q 826 868 804 894 q 849 839 847 842 l 761 771 q 745 792 761 771 q 697 838 729 813 q 617 883 664 863 q 507 903 569 903 q 372 871 432 903 q 269 784 311 839 q 203 654 226 729 q 181 493 181 579 q 202 332 181 407 q 265 202 224 257 q 368 115 307 147 q 507 83 429 83 q 719 163 642 83 q 814 389 796 243 l 583 389 l 618 493 z "},"H":{"ha":972,"x_min":118,"x_max":854,"o":"m 854 986 l 854 0 l 729 0 l 729 458 l 243 458 l 243 0 l 118 0 l 118 986 l 243 986 l 243 563 l 729 563 l 729 986 l 854 986 z "},"I":{"ha":472,"x_min":35,"x_max":438,"o":"m 63 90 l 174 90 l 174 896 l 49 896 l 76 986 l 438 986 l 410 896 l 299 896 l 299 90 l 424 90 l 396 0 l 35 0 l 63 90 z "},"J":{"ha":382,"x_min":-28,"x_max":278,"o":"m 153 986 l 278 986 l 278 160 q 258 -24 278 56 q 198 -158 238 -104 q 102 -237 158 -211 q -28 -257 46 -262 l -28 -153 q 104 -89 56 -161 q 153 146 153 -17 l 153 986 z "},"K":{"ha":819,"x_min":118,"x_max":854,"o":"m 771 986 l 436 583 l 854 0 l 701 0 l 367 486 l 357 486 l 243 347 l 243 0 l 118 0 l 118 986 l 243 986 l 243 517 l 253 517 l 618 986 l 771 986 z "},"L":{"ha":688,"x_min":118,"x_max":694,"o":"m 243 986 l 243 104 l 694 104 l 660 0 l 118 0 l 118 986 l 243 986 z "},"M":{"ha":1229,"x_min":118,"x_max":1111,"o":"m 1111 986 l 1111 0 l 986 0 l 986 746 l 967 746 l 667 174 l 563 174 l 263 746 l 243 746 l 243 0 l 118 0 l 118 986 l 276 986 l 608 340 l 621 340 l 953 986 l 1111 986 z "},"N":{"ha":1000,"x_min":118,"x_max":882,"o":"m 882 986 l 882 0 l 725 0 l 258 792 l 243 792 l 243 0 l 118 0 l 118 986 l 275 986 l 742 208 l 757 208 l 757 986 l 882 986 z "},"O":{"ha":1014,"x_min":56,"x_max":958,"o":"m 958 493 q 927 292 958 386 q 837 129 896 199 q 694 19 778 60 q 507 -21 611 -21 q 319 19 403 -21 q 177 129 236 60 q 87 292 118 199 q 56 493 56 386 q 87 694 56 600 q 177 857 118 788 q 319 967 236 926 q 507 1007 403 1007 q 694 967 611 1007 q 837 857 778 926 q 927 694 896 788 q 958 493 958 600 m 833 493 q 810 654 833 579 q 745 784 788 729 q 642 871 703 839 q 507 903 582 903 q 372 871 432 903 q 269 784 311 839 q 203 654 226 729 q 181 493 181 579 q 203 332 181 407 q 269 202 226 257 q 372 115 311 147 q 507 83 432 83 q 642 115 582 83 q 745 202 703 147 q 810 332 788 257 q 833 493 833 407 z "},"P":{"ha":806,"x_min":118,"x_max":757,"o":"m 403 507 q 572 559 513 507 q 632 694 632 611 q 572 830 632 778 q 403 882 513 882 l 243 882 l 243 507 l 403 507 m 403 986 q 555 965 489 986 q 666 906 621 944 q 734 813 711 867 q 757 694 757 760 q 734 576 757 629 q 666 483 711 522 q 555 424 621 444 q 403 403 489 403 l 243 403 l 243 0 l 118 0 l 118 986 l 403 986 z "},"Q":{"ha":1021,"x_min":56,"x_max":1139,"o":"m 958 493 q 942 344 958 415 q 894 213 925 274 q 816 106 863 153 q 711 28 769 58 q 775 -101 722 -51 q 903 -153 828 -150 q 955 -147 932 -153 q 997 -130 978 -140 q 1030 -107 1015 -119 q 1056 -83 1044 -94 l 1139 -160 q 1039 -231 1101 -204 q 903 -257 976 -257 q 803 -241 853 -257 q 710 -194 753 -225 q 636 -117 668 -162 q 592 -14 604 -72 q 551 -19 572 -18 q 507 -21 529 -21 q 319 19 403 -21 q 177 129 236 60 q 87 292 118 199 q 56 493 56 386 q 87 694 56 600 q 177 857 118 788 q 319 967 236 926 q 507 1007 403 1007 q 694 967 611 1007 q 837 857 778 926 q 927 694 896 788 q 958 493 958 600 m 833 493 q 810 654 833 579 q 745 784 788 729 q 642 871 703 839 q 507 903 582 903 q 372 871 432 903 q 269 784 311 839 q 203 654 226 729 q 181 493 181 579 q 203 332 181 407 q 269 202 226 257 q 372 115 311 147 q 507 83 432 83 q 642 115 582 83 q 745 202 703 147 q 810 332 788 257 q 833 493 833 407 z "},"R":{"ha":847,"x_min":118,"x_max":813,"o":"m 417 986 q 569 965 503 986 q 680 906 635 944 q 748 813 725 867 q 771 694 771 760 q 715 519 771 590 q 553 419 660 447 l 813 0 l 674 0 l 424 403 l 243 403 l 243 0 l 118 0 l 118 986 l 417 986 m 417 507 q 586 559 526 507 q 646 694 646 611 q 586 830 646 778 q 417 882 526 882 l 243 882 l 243 507 l 417 507 z "},"S":{"ha":778,"x_min":56,"x_max":722,"o":"m 586 810 q 557 840 574 824 q 517 869 540 856 q 465 893 494 883 q 400 903 436 903 q 335 894 367 903 q 278 865 303 885 q 238 815 253 846 q 222 743 222 785 q 259 647 222 681 q 351 593 296 614 q 472 554 407 572 q 593 504 538 536 q 685 418 649 472 q 722 271 722 364 q 696 149 722 203 q 624 57 669 94 q 518 -1 579 19 q 386 -21 457 -21 q 263 -7 315 -21 q 170 28 210 7 q 103 78 131 50 q 56 133 75 106 l 142 213 q 246 117 185 150 q 386 83 307 83 q 463 95 425 83 q 531 131 501 107 q 579 192 561 156 q 597 278 597 228 q 560 376 597 342 q 468 434 524 411 q 347 475 413 457 q 226 524 282 493 q 134 608 171 556 q 97 750 97 660 q 116 851 97 804 q 173 933 135 899 q 268 988 211 968 q 400 1007 325 1007 q 520 988 471 1007 q 602 945 569 969 q 652 900 635 921 q 674 875 669 879 l 586 810 z "},"T":{"ha":722,"x_min":14,"x_max":708,"o":"m 708 986 l 674 882 l 424 882 l 424 0 l 299 0 l 299 882 l 14 882 l 49 986 l 708 986 z "},"U":{"ha":944,"x_min":97,"x_max":847,"o":"m 722 986 l 847 986 l 847 417 q 821 222 847 304 q 746 86 794 140 q 628 6 697 32 q 472 -21 558 -21 q 317 6 386 -21 q 199 86 247 32 q 124 222 150 140 q 97 417 97 304 l 97 986 l 222 986 l 222 417 q 239 262 222 325 q 288 159 256 199 q 366 101 319 119 q 472 83 413 83 q 578 101 532 83 q 657 159 625 119 q 706 262 689 199 q 722 417 722 325 l 722 986 z "},"V":{"ha":806,"x_min":-14,"x_max":819,"o":"m 819 986 l 468 0 l 338 0 l -14 986 l 118 986 l 396 174 l 411 174 l 688 986 l 819 986 z "},"W":{"ha":1319,"x_min":-7,"x_max":1326,"o":"m 1326 986 l 1022 0 l 889 0 l 668 757 l 653 757 l 432 0 l 299 0 l -7 986 l 125 986 l 356 201 l 374 201 l 600 986 l 719 986 l 946 201 l 964 201 l 1194 986 l 1326 986 z "},"X":{"ha":792,"x_min":0,"x_max":792,"o":"m 750 986 l 465 528 l 792 0 l 653 0 l 401 417 l 392 417 l 139 0 l 0 0 l 326 528 l 42 986 l 181 986 l 392 639 l 401 639 l 611 986 l 750 986 z "},"Y":{"ha":736,"x_min":-14,"x_max":750,"o":"m 750 986 l 431 368 l 431 0 l 306 0 l 306 368 l -14 986 l 118 986 l 364 493 l 372 493 l 618 986 l 750 986 z "},"Z":{"ha":778,"x_min":42,"x_max":736,"o":"m 736 986 l 736 875 l 188 113 l 188 104 l 736 104 l 701 0 l 42 0 l 42 111 l 590 874 l 590 882 l 42 882 l 76 986 l 736 986 z "},"a":{"ha":750,"x_min":56,"x_max":653,"o":"m 521 385 q 399 369 461 376 q 288 346 338 363 q 206 297 238 329 q 174 208 174 265 q 214 113 174 150 q 333 76 254 76 q 447 106 401 76 q 521 188 493 136 l 521 385 m 361 757 q 472 742 421 757 q 560 690 522 726 q 618 596 597 654 q 639 451 639 538 l 639 132 q 643 37 639 74 q 653 0 647 0 l 535 0 q 530 9 532 0 q 526 32 528 18 q 522 61 524 46 q 521 90 521 76 l 514 90 q 490 65 506 82 q 447 29 474 47 q 383 -3 421 11 q 292 -17 344 -17 q 194 1 238 -17 q 119 48 150 18 q 72 117 89 78 q 56 201 56 157 q 94 342 56 290 q 197 422 132 393 q 345 463 261 450 q 521 486 429 476 q 481 613 521 565 q 361 660 440 660 q 258 645 299 660 q 174 611 217 631 l 132 704 q 242 742 190 728 q 361 757 293 757 z "},"b":{"ha":813,"x_min":111,"x_max":764,"o":"m 764 368 q 742 217 764 288 q 678 95 719 147 q 580 13 638 43 q 451 -17 522 -17 q 360 -5 397 -17 q 297 22 322 7 q 258 53 272 38 q 236 76 244 68 l 229 76 l 229 0 l 111 0 l 111 1014 l 229 1014 l 229 653 l 236 653 q 258 678 244 661 q 297 711 272 694 q 360 740 322 728 q 451 753 397 753 q 580 723 522 753 q 678 641 638 693 q 742 519 719 589 q 764 368 764 449 m 646 368 q 632 480 646 428 q 590 570 618 532 q 519 631 561 608 q 424 653 478 653 q 307 624 356 653 q 229 549 258 596 l 229 188 q 307 112 258 140 q 424 83 356 83 q 519 106 478 83 q 590 166 561 128 q 632 256 618 204 q 646 368 646 308 z "},"c":{"ha":729,"x_min":49,"x_max":688,"o":"m 688 122 q 565 22 639 60 q 396 -17 490 -17 q 254 13 318 -17 q 144 95 190 43 q 74 217 99 147 q 49 368 49 288 q 74 519 49 449 q 144 641 99 589 q 254 723 190 693 q 396 753 318 753 q 514 733 464 753 q 597 688 564 713 q 648 641 631 663 q 667 617 665 619 l 579 549 q 568 566 579 549 q 534 604 557 583 q 477 642 511 625 q 396 660 443 660 q 302 637 344 660 q 229 574 260 614 q 183 481 199 535 q 167 368 167 428 q 183 255 167 308 q 229 162 199 201 q 302 99 260 122 q 396 76 344 76 q 490 95 450 76 q 555 136 529 114 q 593 178 581 158 q 606 197 606 197 l 688 122 z "},"d":{"ha":813,"x_min":49,"x_max":701,"o":"m 49 368 q 71 519 49 449 q 134 641 93 589 q 233 723 175 693 q 361 753 290 753 q 453 740 415 753 q 515 711 490 728 q 554 678 540 694 q 576 653 568 661 l 583 653 l 583 1014 l 701 1014 l 701 0 l 583 0 l 583 76 l 576 76 q 554 53 568 68 q 515 22 540 38 q 453 -5 490 7 q 361 -17 415 -17 q 233 13 290 -17 q 134 95 175 43 q 71 217 93 147 q 49 368 49 288 m 167 368 q 181 256 167 308 q 223 166 194 204 q 293 106 251 128 q 389 83 335 83 q 506 112 457 83 q 583 188 554 140 l 583 549 q 506 624 554 596 q 389 653 457 653 q 293 631 335 653 q 223 570 251 608 q 181 480 194 532 q 167 368 167 428 z "},"e":{"ha":747,"x_min":49,"x_max":699,"o":"m 375 753 q 510 723 450 753 q 613 639 571 693 q 676 510 654 585 q 699 347 699 436 l 160 340 q 221 150 160 219 q 382 81 282 81 q 465 92 429 81 q 528 117 501 103 q 570 144 554 131 q 592 163 586 158 l 658 88 q 609 51 635 69 q 552 18 583 33 q 481 -7 521 3 q 389 -17 442 -17 q 242 13 306 -17 q 135 95 178 43 q 71 217 93 147 q 49 368 49 288 q 72 519 49 449 q 137 641 94 589 q 240 723 179 693 q 375 753 300 753 m 375 656 q 292 637 331 656 q 226 588 254 618 q 183 519 199 558 q 167 438 167 479 l 583 438 q 567 519 583 479 q 524 588 551 558 q 458 637 496 618 q 375 656 419 656 z "},"f":{"ha":525,"x_min":63,"x_max":525,"o":"m 497 921 q 438 935 471 932 q 385 936 406 939 q 362 930 375 935 q 338 914 349 925 q 320 883 328 903 q 313 832 313 864 l 313 674 l 472 674 l 438 576 l 313 576 l 313 0 l 194 0 l 194 576 l 63 576 l 97 674 l 194 674 l 194 832 q 245 983 194 932 q 375 1035 296 1035 q 456 1029 422 1035 q 525 1010 489 1024 l 497 921 z "},"g":{"ha":764,"x_min":49,"x_max":729,"o":"m 367 -361 q 129 -294 210 -361 q 49 -111 49 -226 q 67 -31 49 -64 q 110 26 86 3 q 157 63 133 49 q 190 82 181 76 q 153 98 174 89 q 113 122 132 107 q 82 156 94 136 q 69 206 69 176 q 100 278 69 253 q 193 318 131 303 q 165 338 182 324 q 131 377 147 353 q 102 435 114 401 q 90 514 90 469 q 103 595 90 553 q 148 672 117 638 q 233 730 179 707 q 367 753 286 753 q 431 748 403 753 q 486 732 460 743 l 646 836 l 729 753 l 556 697 q 579 676 564 690 q 609 638 594 661 q 635 584 624 615 q 646 514 646 553 q 644 472 646 497 q 633 418 642 446 q 606 363 624 390 q 556 313 588 335 q 478 278 525 292 q 367 264 432 264 q 320 267 339 264 q 278 278 301 271 q 203 258 228 272 q 188 219 178 243 q 240 185 199 194 q 339 172 282 176 q 460 158 396 167 q 577 125 524 150 q 666 51 631 100 q 701 -83 701 3 q 677 -203 701 -151 q 609 -290 653 -254 q 503 -343 565 -325 q 367 -361 442 -361 m 369 361 q 430 370 401 361 q 480 398 458 379 q 515 446 501 417 q 528 514 528 475 q 515 580 528 553 q 478 624 501 607 q 427 648 456 640 q 367 656 399 656 q 307 648 336 656 q 256 624 278 640 q 222 580 235 607 q 208 514 208 553 q 222 446 208 475 q 258 398 235 417 q 310 370 281 379 q 369 361 339 361 m 290 74 q 253 47 274 64 q 213 6 232 29 q 180 -43 193 -17 q 167 -99 167 -69 q 223 -217 167 -169 q 383 -264 279 -264 q 474 -249 436 -264 q 535 -208 511 -233 q 572 -151 560 -183 q 583 -86 583 -119 q 553 1 583 -31 q 478 49 524 33 q 383 69 433 65 q 290 74 332 74 z "},"h":{"ha":785,"x_min":111,"x_max":701,"o":"m 701 0 l 583 0 l 583 458 q 542 607 583 558 q 438 656 500 656 q 367 643 399 656 q 309 610 335 631 q 264 563 283 589 q 229 507 244 536 l 229 0 l 111 0 l 111 1014 l 229 1014 l 229 639 l 236 639 q 260 666 244 647 q 302 704 276 685 q 365 738 328 724 q 451 753 401 753 q 639 674 576 753 q 701 465 701 596 l 701 0 z "},"i":{"ha":382,"x_min":104,"x_max":278,"o":"m 132 0 l 132 736 l 250 736 l 250 0 l 132 0 m 278 935 l 192 847 l 104 935 l 192 1021 l 278 935 z "},"j":{"ha":326,"x_min":-76,"x_max":222,"o":"m 76 736 l 194 736 l 194 -90 q 124 -381 194 -293 q -76 -458 54 -469 l -72 -353 q -2 -347 -31 -357 q 44 -308 26 -336 q 69 -229 61 -279 q 76 -104 76 -179 l 76 736 m 222 935 l 136 847 l 49 935 l 136 1021 l 222 935 z "},"k":{"ha":681,"x_min":104,"x_max":694,"o":"m 222 1014 l 222 431 l 229 431 l 507 736 l 646 736 l 378 443 l 694 0 l 549 0 l 306 351 l 299 351 l 222 264 l 222 0 l 104 0 l 104 1014 l 222 1014 z "},"l":{"ha":340,"x_min":111,"x_max":229,"o":"m 111 1014 l 229 1014 l 229 0 l 111 0 l 111 1014 z "},"m":{"ha":1188,"x_min":104,"x_max":1097,"o":"m 660 0 l 542 0 l 542 465 q 507 610 542 565 q 410 656 472 656 q 342 642 371 656 q 291 608 313 629 q 253 561 269 588 q 222 507 236 535 l 222 0 l 104 0 l 104 736 l 222 736 l 222 639 l 229 639 q 250 665 238 647 q 285 703 263 683 q 340 738 307 722 q 424 753 374 753 q 555 719 504 754 q 629 625 606 683 l 636 625 q 660 658 644 636 q 701 700 675 679 q 767 737 728 721 q 861 753 806 753 q 968 732 924 753 q 1042 674 1013 711 q 1084 583 1071 636 q 1097 465 1097 531 l 1097 0 l 979 0 l 979 458 q 944 607 979 558 q 847 656 910 656 q 779 642 808 656 q 728 608 750 629 q 690 561 707 588 q 660 507 674 535 l 660 0 z "},"n":{"ha":785,"x_min":104,"x_max":694,"o":"m 694 0 l 576 0 l 576 458 q 535 607 576 558 q 431 656 493 656 q 360 643 392 656 q 302 610 328 631 q 257 563 276 589 q 222 507 238 536 l 222 0 l 104 0 l 104 736 l 222 736 l 222 639 l 229 639 q 253 666 238 647 q 295 704 269 685 q 358 738 321 724 q 444 753 394 753 q 632 674 569 753 q 694 465 694 596 l 694 0 z "},"o":{"ha":792,"x_min":49,"x_max":743,"o":"m 743 368 q 718 217 743 288 q 647 95 693 147 q 538 13 601 43 q 396 -17 474 -17 q 254 13 318 -17 q 144 95 190 43 q 74 217 99 147 q 49 368 49 288 q 74 519 49 449 q 144 641 99 589 q 254 723 190 693 q 396 753 318 753 q 538 723 474 753 q 647 641 601 693 q 718 519 693 589 q 743 368 743 449 m 625 368 q 609 481 625 428 q 563 572 593 533 q 490 633 532 611 q 396 656 449 656 q 302 633 344 656 q 229 572 260 611 q 183 481 199 533 q 167 368 167 428 q 183 256 167 308 q 229 164 199 203 q 302 103 260 125 q 396 81 344 81 q 490 103 449 81 q 563 164 532 125 q 609 256 593 203 q 625 368 625 308 z "},"p":{"ha":806,"x_min":104,"x_max":757,"o":"m 757 368 q 735 217 757 288 q 672 95 713 147 q 573 13 631 43 q 444 -17 515 -17 q 353 -5 390 -17 q 290 22 315 7 q 251 53 265 38 q 229 76 238 68 l 222 76 l 222 -354 l 104 -382 l 104 736 l 222 764 l 222 653 l 229 653 q 251 678 238 661 q 290 711 265 694 q 353 740 315 728 q 444 753 390 753 q 573 723 515 753 q 672 641 631 693 q 735 519 713 589 q 757 368 757 449 m 639 368 q 625 480 639 428 q 583 570 611 532 q 513 631 554 608 q 417 653 471 653 q 300 624 349 653 q 222 549 251 596 l 222 188 q 300 112 251 140 q 417 83 349 83 q 513 106 471 83 q 583 166 554 128 q 625 256 611 204 q 639 368 639 308 z "},"q":{"ha":806,"x_min":49,"x_max":701,"o":"m 49 368 q 71 519 49 449 q 134 641 93 589 q 233 723 175 693 q 361 753 290 753 q 453 740 415 753 q 515 711 490 728 q 554 678 540 694 q 576 653 568 661 l 583 653 l 583 736 l 701 764 l 701 -354 l 583 -382 l 583 76 l 576 76 q 554 53 568 68 q 515 22 540 38 q 453 -5 490 7 q 361 -17 415 -17 q 233 13 290 -17 q 134 95 175 43 q 71 217 93 147 q 49 368 49 288 m 167 368 q 181 256 167 308 q 223 166 194 204 q 293 106 251 128 q 389 83 335 83 q 506 112 457 83 q 583 188 554 140 l 583 549 q 506 624 554 596 q 389 653 457 653 q 293 631 335 653 q 223 570 251 608 q 181 480 194 532 q 167 368 167 428 z "},"r":{"ha":546,"x_min":104,"x_max":546,"o":"m 463 604 q 416 645 443 631 q 353 660 389 660 q 310 650 332 660 q 270 625 289 640 q 239 590 251 610 q 222 549 226 569 l 222 0 l 104 0 l 104 736 l 222 736 l 222 663 l 229 663 q 244 688 232 672 q 278 717 257 703 q 328 742 300 732 q 386 753 356 753 q 479 736 442 753 q 546 690 517 719 l 463 604 z "},"s":{"ha":611,"x_min":42,"x_max":563,"o":"m 447 600 q 392 641 424 628 q 313 656 360 654 q 270 651 292 656 q 231 637 249 647 q 203 610 214 626 q 192 569 192 593 q 219 496 192 522 q 288 452 247 469 q 377 419 329 435 q 466 376 425 403 q 535 308 507 350 q 563 194 563 265 q 541 106 563 144 q 483 40 519 67 q 399 -2 446 13 q 299 -17 351 -17 q 205 -6 247 -17 q 131 22 163 6 q 76 59 99 39 q 42 97 54 79 l 117 167 q 194 103 149 126 q 299 81 240 81 q 351 89 325 81 q 397 113 376 97 q 431 153 418 129 q 444 208 444 178 q 417 274 444 250 q 348 317 389 299 q 259 353 307 336 q 170 396 211 369 q 101 463 129 422 q 74 569 74 503 q 92 645 74 611 q 141 703 110 679 q 217 740 172 726 q 313 753 261 753 q 397 740 360 753 q 463 710 435 726 q 506 678 490 693 q 525 660 522 663 l 447 600 z "},"t":{"ha":483,"x_min":49,"x_max":483,"o":"m 483 11 q 417 -12 447 -3 q 340 -21 388 -21 q 267 -8 301 -21 q 208 31 233 6 q 167 94 182 57 q 153 182 153 132 l 153 674 l 49 674 l 49 771 l 153 771 l 153 1014 l 271 1042 l 271 771 l 417 771 l 417 674 l 271 674 l 271 182 q 279 131 271 150 q 300 100 288 111 q 326 85 313 89 q 350 78 340 81 q 400 82 371 75 q 456 100 429 89 l 483 11 z "},"u":{"ha":785,"x_min":90,"x_max":681,"o":"m 90 736 l 208 736 l 208 278 q 250 129 208 178 q 354 81 292 81 q 425 93 393 81 q 483 126 457 106 q 528 174 508 147 q 563 229 549 200 l 563 736 l 681 736 l 681 0 l 563 0 l 563 97 l 556 97 q 531 70 547 89 q 490 32 515 51 q 427 -2 464 13 q 340 -17 390 -17 q 153 62 215 -17 q 90 271 90 140 l 90 736 z "},"v":{"ha":653,"x_min":0,"x_max":653,"o":"m 653 736 l 392 0 l 261 0 l 0 736 l 132 736 l 318 160 l 333 160 l 521 736 l 653 736 z "},"w":{"ha":1028,"x_min":0,"x_max":1028,"o":"m 896 736 l 1028 736 l 796 0 l 667 0 l 519 501 l 510 501 l 361 0 l 232 0 l 0 736 l 132 736 l 294 167 l 304 167 l 468 736 l 560 736 l 725 167 l 735 167 l 896 736 z "},"x":{"ha":653,"x_min":-7,"x_max":660,"o":"m 646 736 l 394 382 l 660 0 l 521 0 l 332 279 l 322 279 l 132 0 l -7 0 l 257 381 l 7 736 l 146 736 l 322 471 l 332 471 l 507 736 l 646 736 z "},"y":{"ha":639,"x_min":-14,"x_max":653,"o":"m 521 736 l 653 736 l 382 0 q 324 -141 351 -82 q 267 -242 296 -200 q 207 -310 238 -283 q 140 -354 176 -337 q 98 -368 121 -364 q 53 -372 75 -372 q 14 -369 32 -372 q -14 -361 -4 -365 l -14 -247 q 17 -252 -1 -251 q 54 -251 35 -253 q 93 -242 74 -249 q 126 -225 113 -236 q 160 -187 143 -212 q 195 -130 178 -161 q 228 -65 213 -99 q 257 0 244 -31 l -14 736 l 121 736 l 315 174 l 328 174 l 521 736 z "},"z":{"ha":632,"x_min":28,"x_max":604,"o":"m 597 736 l 597 639 l 174 106 l 174 97 l 604 97 l 569 0 l 35 0 l 35 97 l 458 631 l 458 639 l 28 639 l 63 736 l 597 736 z "},"А":{"ha":847,"x_min":-7,"x_max":854,"o":"m 482 986 l 854 0 l 715 0 l 619 264 l 228 264 l 132 0 l -7 0 l 365 986 l 482 986 m 265 368 l 582 368 l 435 796 l 414 796 l 265 368 z "},"Б":{"ha":799,"x_min":118,"x_max":757,"o":"m 243 479 l 243 104 l 403 104 q 572 156 513 104 q 632 292 632 208 q 572 427 632 375 q 403 479 513 479 l 243 479 m 118 0 l 118 986 l 674 986 l 674 882 l 243 882 l 243 583 l 403 583 q 555 563 489 583 q 666 503 621 542 q 734 410 711 464 q 757 292 757 357 q 734 173 757 226 q 666 81 711 119 q 555 21 621 42 q 403 0 489 0 l 118 0 z "},"В":{"ha":854,"x_min":118,"x_max":806,"o":"m 243 479 l 243 104 l 458 104 q 552 120 511 104 q 622 162 593 136 q 665 222 650 188 q 681 292 681 256 q 664 363 681 329 q 618 422 647 396 q 548 464 589 449 q 458 479 507 479 l 243 479 m 243 882 l 243 583 l 458 583 q 575 627 532 583 q 618 733 618 671 q 605 792 618 765 q 568 839 592 819 q 513 870 544 858 q 444 882 481 882 l 243 882 m 604 533 q 664 513 629 528 q 730 469 699 497 q 783 398 761 442 q 806 292 806 354 q 784 176 806 229 q 721 83 763 122 q 618 22 679 44 q 479 0 557 0 l 118 0 l 118 986 l 444 986 q 570 967 515 986 q 664 915 625 949 q 723 834 703 881 q 743 733 743 788 q 728 656 743 689 q 693 599 714 622 q 648 563 672 576 q 604 543 624 549 l 604 533 z "},"Г":{"ha":653,"x_min":118,"x_max":653,"o":"m 653 986 l 618 882 l 243 882 l 243 0 l 118 0 l 118 986 l 653 986 z "},"Д":{"ha":951,"x_min":-28,"x_max":938,"o":"m 667 104 l 667 882 l 361 882 l 361 729 q 347 499 361 601 q 312 321 333 397 q 263 192 290 244 q 208 111 236 140 l 208 104 l 667 104 m 236 986 l 792 986 l 792 104 l 938 104 l 917 -236 l 813 -236 l 813 0 l 97 0 l 97 -236 l -7 -236 l -28 104 l 76 104 q 128 180 100 128 q 181 310 157 232 q 220 494 204 389 q 236 729 236 599 l 236 986 z "},"Е":{"ha":743,"x_min":118,"x_max":701,"o":"m 667 986 l 667 882 l 243 882 l 243 563 l 590 563 l 556 458 l 243 458 l 243 104 l 701 104 l 701 0 l 118 0 l 118 986 l 667 986 z "},"Ё":{"ha":743,"x_min":118,"x_max":701,"o":"m 667 986 l 667 882 l 243 882 l 243 563 l 590 563 l 556 458 l 243 458 l 243 104 l 701 104 l 701 0 l 118 0 l 118 986 l 667 986 m 333 1181 l 244 1090 l 153 1181 l 244 1271 l 333 1181 m 638 1181 l 549 1090 l 458 1181 l 549 1271 l 638 1181 z "},"Ж":{"ha":1278,"x_min":-35,"x_max":1313,"o":"m 1229 986 l 894 583 l 1313 0 l 1160 0 l 825 486 l 815 486 l 701 347 l 701 0 l 576 0 l 576 347 l 463 486 l 453 486 l 118 0 l -35 0 l 383 583 l 49 986 l 201 986 l 567 517 l 576 517 l 576 986 l 701 986 l 701 517 l 711 517 l 1076 986 l 1229 986 z "},"З":{"ha":736,"x_min":14,"x_max":694,"o":"m 694 282 q 669 165 694 219 q 597 68 643 110 q 487 3 551 26 q 344 -21 422 -21 q 224 -4 276 -21 q 130 38 171 13 q 60 92 89 63 q 14 146 32 121 l 94 222 q 133 174 111 199 q 184 130 154 150 q 253 97 214 110 q 344 83 293 83 q 439 100 397 83 q 510 144 481 117 q 554 207 539 171 q 569 282 569 243 q 552 357 569 321 q 505 420 535 393 q 435 463 475 447 q 347 479 394 479 l 250 479 l 285 583 l 347 583 q 464 629 421 583 q 507 743 507 675 q 464 857 507 811 q 347 903 421 903 q 228 876 274 903 q 146 803 182 849 l 65 868 q 113 922 88 897 q 172 966 139 947 q 247 996 204 985 q 347 1007 290 1007 q 471 986 418 1007 q 560 930 524 965 q 614 846 596 894 q 632 743 632 797 q 617 664 632 699 q 582 604 603 629 q 537 564 561 579 q 493 543 513 549 l 493 533 q 553 511 518 528 q 619 465 588 494 q 672 390 650 435 q 694 282 694 344 z "},"И":{"ha":986,"x_min":118,"x_max":868,"o":"m 868 986 l 868 0 l 743 0 l 743 792 l 728 792 l 271 0 l 118 0 l 118 986 l 243 986 l 243 194 l 258 194 l 715 986 l 868 986 z "},"Й":{"ha":986,"x_min":118,"x_max":868,"o":"m 868 986 l 868 0 l 743 0 l 743 792 l 728 792 l 271 0 l 118 0 l 118 986 l 243 986 l 243 194 l 258 194 l 715 986 l 868 986 m 761 1292 q 725 1203 750 1244 q 665 1133 700 1163 q 588 1086 631 1103 q 494 1069 544 1069 q 401 1086 444 1069 q 322 1133 357 1103 q 263 1203 288 1163 q 226 1292 238 1244 l 344 1292 q 399 1189 363 1225 q 494 1153 436 1153 q 589 1189 553 1153 q 643 1292 625 1225 l 761 1292 z "},"К":{"ha":819,"x_min":118,"x_max":854,"o":"m 771 986 l 436 583 l 854 0 l 701 0 l 367 486 l 357 486 l 243 347 l 243 0 l 118 0 l 118 986 l 243 986 l 243 517 l 253 517 l 618 986 l 771 986 z "},"Л":{"ha":882,"x_min":-28,"x_max":764,"o":"m 194 986 l 764 986 l 764 0 l 639 0 l 639 882 l 319 882 l 319 625 q 235 145 319 311 q -28 -21 150 -21 l -28 104 q 138 232 82 104 q 194 632 194 360 l 194 986 z "},"М":{"ha":1229,"x_min":118,"x_max":1111,"o":"m 1111 986 l 1111 0 l 986 0 l 986 746 l 967 746 l 667 174 l 563 174 l 263 746 l 243 746 l 243 0 l 118 0 l 118 986 l 276 986 l 608 340 l 621 340 l 953 986 l 1111 986 z "},"Н":{"ha":972,"x_min":118,"x_max":854,"o":"m 854 986 l 854 0 l 729 0 l 729 458 l 243 458 l 243 0 l 118 0 l 118 986 l 243 986 l 243 563 l 729 563 l 729 986 l 854 986 z "},"О":{"ha":1014,"x_min":56,"x_max":958,"o":"m 958 493 q 927 292 958 386 q 837 129 896 199 q 694 19 778 60 q 507 -21 611 -21 q 319 19 403 -21 q 177 129 236 60 q 87 292 118 199 q 56 493 56 386 q 87 694 56 600 q 177 857 118 788 q 319 967 236 926 q 507 1007 403 1007 q 694 967 611 1007 q 837 857 778 926 q 927 694 896 788 q 958 493 958 600 m 833 493 q 810 654 833 579 q 745 784 788 729 q 642 871 703 839 q 507 903 582 903 q 372 871 432 903 q 269 784 311 839 q 203 654 226 729 q 181 493 181 579 q 203 332 181 407 q 269 202 226 257 q 372 115 311 147 q 507 83 432 83 q 642 115 582 83 q 745 202 703 147 q 810 332 788 257 q 833 493 833 407 z "},"П":{"ha":931,"x_min":118,"x_max":813,"o":"m 813 986 l 813 0 l 688 0 l 688 882 l 243 882 l 243 0 l 118 0 l 118 986 l 813 986 z "},"Р":{"ha":806,"x_min":118,"x_max":757,"o":"m 403 507 q 572 559 513 507 q 632 694 632 611 q 572 830 632 778 q 403 882 513 882 l 243 882 l 243 507 l 403 507 m 403 986 q 555 965 489 986 q 666 906 621 944 q 734 813 711 867 q 757 694 757 760 q 734 576 757 629 q 666 483 711 522 q 555 424 621 444 q 403 403 489 403 l 243 403 l 243 0 l 118 0 l 118 986 l 403 986 z "},"С":{"ha":917,"x_min":56,"x_max":882,"o":"m 882 175 q 724 31 822 83 q 506 -21 626 -21 q 318 19 401 -21 q 176 129 235 60 q 87 292 118 199 q 56 493 56 386 q 87 694 56 600 q 176 857 118 788 q 318 967 235 926 q 506 1007 401 1007 q 655 982 592 1007 q 760 926 718 957 q 824 868 803 894 q 847 839 846 842 l 760 771 q 744 792 760 771 q 695 838 728 813 q 615 883 663 863 q 506 903 568 903 q 370 871 431 903 q 267 784 310 839 q 203 654 225 729 q 181 493 181 579 q 203 332 181 407 q 267 202 225 257 q 370 115 310 147 q 506 83 431 83 q 631 109 576 83 q 724 166 686 135 q 781 223 761 197 q 801 250 801 249 l 882 175 z "},"Т":{"ha":722,"x_min":14,"x_max":708,"o":"m 708 986 l 674 882 l 424 882 l 424 0 l 299 0 l 299 882 l 14 882 l 49 986 l 708 986 z "},"У":{"ha":736,"x_min":-7,"x_max":743,"o":"m 611 986 l 743 986 l 469 324 q 408 186 436 243 q 351 91 379 129 q 293 30 322 53 q 228 -6 264 7 q 141 -21 186 -21 q 56 -7 96 -21 l 56 97 q 96 85 72 89 q 144 84 119 82 q 192 94 169 86 q 232 118 215 103 q 286 197 264 150 q 335 304 308 243 l -7 986 l 128 986 l 390 440 l 397 440 l 611 986 z "},"Ф":{"ha":1153,"x_min":42,"x_max":1111,"o":"m 1111 514 q 1076 349 1111 422 q 977 224 1040 276 q 827 140 914 171 q 639 104 740 110 l 639 -21 l 514 -21 l 514 104 q 326 140 413 110 q 176 224 239 171 q 77 349 113 276 q 42 514 42 422 q 77 678 42 606 q 176 804 113 751 q 326 888 239 857 q 514 924 413 918 l 514 1035 l 639 1035 l 639 924 q 827 888 740 918 q 977 804 914 857 q 1076 678 1040 751 q 1111 514 1111 606 m 986 514 q 894 732 986 656 q 639 819 801 808 l 639 208 q 894 296 801 219 q 986 514 986 372 m 167 514 q 192 389 167 443 q 265 296 218 335 q 375 235 311 257 q 514 208 439 214 l 514 819 q 375 792 439 814 q 265 732 311 771 q 192 639 218 693 q 167 514 167 585 z "},"Х":{"ha":792,"x_min":0,"x_max":792,"o":"m 750 986 l 465 528 l 792 0 l 653 0 l 401 417 l 392 417 l 139 0 l 0 0 l 326 528 l 42 986 l 181 986 l 392 639 l 401 639 l 611 986 l 750 986 z "},"Ц":{"ha":944,"x_min":118,"x_max":931,"o":"m 785 986 l 785 104 l 931 104 l 903 -215 l 799 -215 l 799 0 l 118 0 l 118 986 l 243 986 l 243 104 l 660 104 l 660 986 l 785 986 z "},"Ч":{"ha":854,"x_min":56,"x_max":736,"o":"m 56 986 l 181 986 l 181 708 q 190 606 181 651 q 220 530 199 561 q 278 482 242 499 q 368 465 314 465 q 506 490 447 465 q 611 549 565 514 l 611 986 l 736 986 l 736 0 l 611 0 l 611 431 l 604 431 q 499 384 557 407 q 368 361 442 361 q 219 381 279 361 q 124 442 160 400 q 72 549 88 483 q 56 708 56 615 l 56 986 z "},"Ш":{"ha":1278,"x_min":118,"x_max":1160,"o":"m 1160 986 l 1160 0 l 118 0 l 118 986 l 243 986 l 243 104 l 576 104 l 576 986 l 701 986 l 701 104 l 1035 104 l 1035 986 l 1160 986 z "},"Щ":{"ha":1319,"x_min":118,"x_max":1306,"o":"m 1160 986 l 1160 104 l 1306 104 l 1278 -215 l 1174 -215 l 1174 0 l 118 0 l 118 986 l 243 986 l 243 104 l 576 104 l 576 986 l 701 986 l 701 104 l 1035 104 l 1035 986 l 1160 986 z "},"Ъ":{"ha":958,"x_min":28,"x_max":931,"o":"m 382 521 l 382 104 l 576 104 q 674 120 631 104 q 746 164 717 136 q 790 230 775 192 q 806 313 806 268 q 790 395 806 357 q 746 461 775 433 q 674 505 717 489 q 576 521 631 521 l 382 521 m 257 0 l 257 882 l 28 882 l 63 986 l 382 986 l 382 625 l 576 625 q 728 601 663 625 q 840 536 794 578 q 908 438 885 494 q 931 313 931 381 q 908 188 931 244 q 840 89 885 131 q 728 24 794 47 q 576 0 663 0 l 257 0 z "},"Ы":{"ha":1125,"x_min":118,"x_max":1007,"o":"m 882 986 l 1007 986 l 1007 0 l 882 0 l 882 986 m 243 521 l 243 104 l 417 104 q 514 120 471 104 q 586 164 557 136 q 631 230 615 192 q 646 313 646 268 q 631 395 646 357 q 586 461 615 433 q 514 505 557 489 q 417 521 471 521 l 243 521 m 118 0 l 118 986 l 243 986 l 243 625 l 417 625 q 569 601 503 625 q 680 536 635 578 q 748 438 725 494 q 771 313 771 381 q 748 188 771 244 q 680 89 725 131 q 569 24 635 47 q 417 0 503 0 l 118 0 z "},"Ь":{"ha":819,"x_min":118,"x_max":799,"o":"m 243 521 l 243 104 l 444 104 q 542 120 499 104 q 614 164 585 136 q 658 230 643 192 q 674 313 674 268 q 658 395 674 357 q 614 461 643 433 q 542 505 585 489 q 444 521 499 521 l 243 521 m 118 0 l 118 986 l 243 986 l 243 625 l 444 625 q 597 601 531 625 q 708 536 663 578 q 776 438 753 494 q 799 313 799 381 q 776 188 799 244 q 708 89 753 131 q 597 24 663 47 q 444 0 531 0 l 118 0 z "},"Э":{"ha":918,"x_min":35,"x_max":863,"o":"m 117 250 q 137 223 117 249 q 194 166 157 197 q 287 109 232 135 q 413 83 342 83 q 540 111 483 83 q 639 187 597 139 q 706 301 681 235 q 736 444 731 368 l 332 444 l 367 549 l 735 549 q 703 690 728 625 q 636 801 678 754 q 538 876 594 849 q 413 903 482 903 q 303 883 350 903 q 223 838 256 863 q 174 792 190 813 q 158 771 158 771 l 71 839 q 94 868 74 842 q 158 926 115 894 q 263 982 200 957 q 413 1007 326 1007 q 600 967 517 1007 q 742 857 683 926 q 831 694 800 788 q 863 493 863 600 q 831 292 863 386 q 742 129 800 199 q 600 19 683 60 q 413 -21 517 -21 q 193 31 292 -21 q 35 175 94 83 l 117 250 z "},"Ю":{"ha":1313,"x_min":118,"x_max":1257,"o":"m 1257 493 q 1227 292 1257 386 q 1141 129 1197 199 q 1005 19 1085 60 q 826 -21 925 -21 q 655 17 732 -21 q 522 119 578 54 q 434 271 467 183 q 397 458 401 358 l 243 458 l 243 0 l 118 0 l 118 986 l 243 986 l 243 563 l 399 563 q 442 738 408 657 q 531 879 476 819 q 661 973 586 939 q 826 1007 736 1007 q 1005 967 925 1007 q 1141 857 1085 926 q 1227 694 1197 788 q 1257 493 1257 600 m 1132 493 q 1110 654 1132 579 q 1049 784 1089 729 q 953 871 1010 839 q 826 903 897 903 q 699 871 756 903 q 603 784 643 839 q 542 654 564 729 q 521 493 521 579 q 542 332 521 407 q 603 202 564 257 q 699 115 643 147 q 826 83 756 83 q 953 115 897 83 q 1049 202 1010 147 q 1110 332 1089 257 q 1132 493 1132 407 z "},"Я":{"ha":847,"x_min":49,"x_max":729,"o":"m 729 986 l 729 0 l 604 0 l 604 403 l 424 403 l 188 0 l 49 0 l 294 419 q 132 519 188 447 q 76 694 76 590 q 99 813 76 760 q 167 906 122 867 q 278 965 213 944 q 431 986 344 986 l 729 986 m 604 507 l 604 882 l 431 882 q 261 830 321 882 q 201 694 201 778 q 261 559 201 611 q 431 507 321 507 l 604 507 z "},"а":{"ha":750,"x_min":56,"x_max":653,"o":"m 521 385 q 399 369 461 376 q 288 346 338 363 q 206 297 238 329 q 174 208 174 265 q 214 113 174 150 q 333 76 254 76 q 447 106 401 76 q 521 188 493 136 l 521 385 m 361 757 q 472 742 421 757 q 560 690 522 726 q 618 596 597 654 q 639 451 639 538 l 639 132 q 643 37 639 74 q 653 0 647 0 l 535 0 q 530 9 532 0 q 526 32 528 18 q 522 61 524 46 q 521 90 521 76 l 514 90 q 490 65 506 82 q 447 29 474 47 q 383 -3 421 11 q 292 -17 344 -17 q 194 1 238 -17 q 119 48 150 18 q 72 117 89 78 q 56 201 56 157 q 94 342 56 290 q 197 422 132 393 q 345 463 261 450 q 521 486 429 476 q 481 613 521 565 q 361 660 440 660 q 258 645 299 660 q 174 611 217 631 l 132 704 q 242 742 190 728 q 361 757 293 757 z "},"б":{"ha":819,"x_min":69,"x_max":764,"o":"m 764 350 q 741 208 764 275 q 674 92 718 142 q 567 13 631 42 q 424 -17 504 -17 q 251 27 319 -17 q 142 143 183 71 q 85 308 101 215 q 69 500 69 401 q 101 736 69 649 q 181 871 133 824 q 287 935 229 918 q 396 958 344 951 q 463 974 435 964 q 513 997 492 985 q 547 1022 533 1010 q 567 1044 560 1035 l 646 965 q 565 900 622 929 q 411 864 507 871 q 326 844 369 861 q 247 792 282 828 q 189 697 211 756 q 167 549 167 638 l 176 549 q 198 594 181 565 q 246 649 215 622 q 322 696 276 676 q 431 715 368 715 q 574 687 511 715 q 678 608 636 658 q 742 492 721 558 q 764 350 764 425 m 653 350 q 637 453 653 404 q 590 539 621 503 q 518 597 560 575 q 424 618 476 618 q 330 599 372 618 q 257 544 288 579 q 210 459 226 508 q 194 350 194 410 q 210 244 194 293 q 257 158 226 194 q 330 101 288 122 q 424 81 372 81 q 518 102 476 81 q 590 160 560 124 q 637 247 621 197 q 653 350 653 296 z "},"в":{"ha":701,"x_min":104,"x_max":653,"o":"m 222 340 l 222 97 l 368 97 q 447 106 415 97 q 497 132 478 115 q 525 171 517 149 q 533 219 533 193 q 525 268 533 246 q 497 306 517 290 q 447 331 478 322 q 368 340 415 340 l 222 340 m 222 639 l 222 431 l 347 431 q 453 459 421 431 q 486 535 486 488 q 453 610 486 582 q 347 639 421 639 l 222 639 m 497 396 q 543 381 517 392 q 594 351 569 371 q 635 299 618 331 q 653 219 653 267 q 583 60 653 121 q 368 0 514 0 l 104 0 l 104 736 l 347 736 q 539 686 474 736 q 604 542 604 636 q 593 488 604 511 q 565 447 582 464 q 530 420 549 431 q 497 406 511 410 l 497 396 z "},"г":{"ha":576,"x_min":104,"x_max":556,"o":"m 556 736 l 521 639 l 222 639 l 222 0 l 104 0 l 104 736 l 556 736 z "},"д":{"ha":819,"x_min":0,"x_max":806,"o":"m 556 97 l 556 639 l 319 639 q 310 449 319 538 q 285 290 300 360 q 254 173 271 221 q 222 104 238 125 l 222 97 l 556 97 m 201 736 l 674 736 l 674 97 l 806 97 l 778 -222 l 681 -222 l 681 0 l 125 0 l 125 -222 l 28 -222 l 0 97 l 97 97 q 131 157 113 113 q 164 270 149 201 q 190 428 179 339 q 201 618 201 517 l 201 736 z "},"е":{"ha":747,"x_min":49,"x_max":699,"o":"m 375 753 q 510 723 450 753 q 613 639 571 693 q 676 510 654 585 q 699 347 699 436 l 160 340 q 221 150 160 219 q 382 81 282 81 q 465 92 429 81 q 528 117 501 103 q 570 144 554 131 q 592 163 586 158 l 658 88 q 609 51 635 69 q 552 18 583 33 q 481 -7 521 3 q 389 -17 442 -17 q 242 13 306 -17 q 135 95 178 43 q 71 217 93 147 q 49 368 49 288 q 72 519 49 449 q 137 641 94 589 q 240 723 179 693 q 375 753 300 753 m 375 656 q 292 637 331 656 q 226 588 254 618 q 183 519 199 558 q 167 438 167 479 l 583 438 q 567 519 583 479 q 524 588 551 558 q 458 637 496 618 q 375 656 419 656 z "},"ё":{"ha":747,"x_min":49,"x_max":699,"o":"m 375 753 q 510 723 450 753 q 613 639 571 693 q 676 510 654 585 q 699 347 699 436 l 160 340 q 221 150 160 219 q 382 81 282 81 q 465 92 429 81 q 528 117 501 103 q 570 144 554 131 q 592 163 586 158 l 658 88 q 609 51 635 69 q 552 18 583 33 q 481 -7 521 3 q 389 -17 442 -17 q 242 13 306 -17 q 135 95 178 43 q 71 217 93 147 q 49 368 49 288 q 72 519 49 449 q 137 641 94 589 q 240 723 179 693 q 375 753 300 753 m 375 656 q 292 637 331 656 q 226 588 254 618 q 183 519 199 558 q 167 438 167 479 l 583 438 q 567 519 583 479 q 524 588 551 558 q 458 637 496 618 q 375 656 419 656 m 308 935 l 222 847 l 135 935 l 222 1021 l 308 935 m 621 935 l 535 847 l 447 935 l 535 1021 l 621 935 z "},"ж":{"ha":1021,"x_min":-14,"x_max":1035,"o":"m 986 736 l 719 429 l 1035 0 l 889 0 l 656 340 l 646 340 l 569 251 l 569 0 l 451 0 l 451 251 l 375 340 l 365 340 l 132 0 l -14 0 l 301 429 l 35 736 l 174 736 l 442 403 l 451 403 l 451 736 l 569 736 l 569 403 l 579 403 l 847 736 l 986 736 z "},"з":{"ha":611,"x_min":14,"x_max":569,"o":"m 569 211 q 549 126 569 167 q 490 53 529 85 q 394 2 450 21 q 264 -17 338 -17 q 178 -7 217 -17 q 108 19 139 3 q 53 54 76 35 q 14 94 31 74 l 96 163 q 122 135 107 150 q 158 108 138 121 q 204 88 178 96 q 264 81 231 81 q 337 88 303 81 q 397 112 371 96 q 437 153 422 128 q 451 211 451 178 q 405 310 451 279 q 264 340 358 340 l 215 340 l 243 431 l 264 431 q 370 463 338 431 q 403 543 403 496 q 370 623 403 590 q 264 656 338 656 q 178 634 211 656 q 133 589 146 613 l 54 650 q 135 723 85 693 q 264 753 185 753 q 386 735 338 753 q 465 688 435 717 q 508 622 496 658 q 521 549 521 585 q 510 493 521 518 q 482 450 499 468 q 447 421 465 432 q 415 406 429 410 l 415 396 q 461 380 435 392 q 512 347 488 368 q 553 292 536 325 q 569 211 569 258 z "},"и":{"ha":792,"x_min":104,"x_max":688,"o":"m 688 736 l 688 0 l 569 0 l 569 542 l 554 542 l 236 0 l 104 0 l 104 736 l 222 736 l 222 194 l 238 194 l 556 736 l 688 736 z "},"й":{"ha":792,"x_min":104,"x_max":688,"o":"m 504 1028 q 496 993 504 1013 q 473 957 488 974 q 439 928 458 940 q 396 917 419 917 q 353 928 372 917 q 319 957 333 940 q 297 993 304 974 q 289 1028 289 1013 l 185 1028 q 212 957 193 990 q 258 899 231 924 q 319 861 285 875 q 396 847 354 847 q 473 861 438 847 q 535 899 508 875 q 581 957 563 924 q 608 1028 600 990 l 504 1028 m 688 736 l 688 0 l 569 0 l 569 542 l 554 542 l 236 0 l 104 0 l 104 736 l 222 736 l 222 194 l 238 194 l 556 736 l 688 736 z "},"к":{"ha":681,"x_min":104,"x_max":694,"o":"m 646 736 l 375 429 l 694 0 l 549 0 l 308 340 l 299 340 l 222 251 l 222 0 l 104 0 l 104 736 l 222 736 l 222 415 l 232 415 l 507 736 l 646 736 z "},"л":{"ha":757,"x_min":-7,"x_max":653,"o":"m 160 736 l 653 736 l 653 0 l 535 0 l 535 639 l 278 639 l 278 451 q 260 251 278 339 q 208 103 243 164 q 120 12 174 43 q -7 -17 67 -19 l -7 101 q 66 120 35 101 q 118 181 97 139 q 149 289 139 222 q 160 451 160 356 l 160 736 z "},"м":{"ha":965,"x_min":104,"x_max":861,"o":"m 861 736 l 861 0 l 743 0 l 743 528 l 732 528 l 532 125 l 435 125 l 235 528 l 222 528 l 222 0 l 104 0 l 104 736 l 243 736 l 478 271 l 488 271 l 722 736 l 861 736 z "},"н":{"ha":799,"x_min":104,"x_max":694,"o":"m 694 736 l 694 0 l 576 0 l 576 340 l 222 340 l 222 0 l 104 0 l 104 736 l 222 736 l 222 438 l 576 438 l 576 736 l 694 736 z "},"о":{"ha":792,"x_min":49,"x_max":743,"o":"m 743 368 q 718 217 743 288 q 647 95 693 147 q 538 13 601 43 q 396 -17 474 -17 q 254 13 318 -17 q 144 95 190 43 q 74 217 99 147 q 49 368 49 288 q 74 519 49 449 q 144 641 99 589 q 254 723 190 693 q 396 753 318 753 q 538 723 474 753 q 647 641 601 693 q 718 519 693 589 q 743 368 743 449 m 625 368 q 609 481 625 428 q 563 572 593 533 q 490 633 532 611 q 396 656 449 656 q 302 633 344 656 q 229 572 260 611 q 183 481 199 533 q 167 368 167 428 q 183 256 167 308 q 229 164 199 203 q 302 103 260 125 q 396 81 344 81 q 490 103 449 81 q 563 164 532 125 q 609 256 593 203 q 625 368 625 308 z "},"п":{"ha":785,"x_min":104,"x_max":681,"o":"m 681 736 l 681 0 l 563 0 l 563 639 l 222 639 l 222 0 l 104 0 l 104 736 l 681 736 z "},"р":{"ha":806,"x_min":104,"x_max":757,"o":"m 757 368 q 735 217 757 288 q 672 95 713 147 q 573 13 631 43 q 444 -17 515 -17 q 353 -5 390 -17 q 290 22 315 7 q 251 53 265 38 q 229 76 238 68 l 222 76 l 222 -354 l 104 -382 l 104 736 l 222 764 l 222 653 l 229 653 q 251 678 238 661 q 290 711 265 694 q 353 740 315 728 q 444 753 390 753 q 573 723 515 753 q 672 641 631 693 q 735 519 713 589 q 757 368 757 449 m 639 368 q 625 480 639 428 q 583 570 611 532 q 513 631 554 608 q 417 653 471 653 q 300 624 349 653 q 222 549 251 596 l 222 188 q 300 112 251 140 q 417 83 349 83 q 513 106 471 83 q 583 166 554 128 q 625 256 611 204 q 639 368 639 308 z "},"с":{"ha":729,"x_min":49,"x_max":688,"o":"m 688 122 q 565 22 639 60 q 396 -17 490 -17 q 254 13 318 -17 q 144 95 190 43 q 74 217 99 147 q 49 368 49 288 q 74 519 49 449 q 144 641 99 589 q 254 723 190 693 q 396 753 318 753 q 514 733 464 753 q 597 688 564 713 q 648 641 631 663 q 667 617 665 619 l 579 549 q 568 566 579 549 q 534 604 557 583 q 477 642 511 625 q 396 660 443 660 q 302 637 344 660 q 229 574 260 614 q 183 481 199 535 q 167 368 167 428 q 183 255 167 308 q 229 162 199 201 q 302 99 260 122 q 396 76 344 76 q 490 95 450 76 q 555 136 529 114 q 593 178 581 158 q 606 197 606 197 l 688 122 z "},"т":{"ha":604,"x_min":14,"x_max":590,"o":"m 590 736 l 556 639 l 361 639 l 361 0 l 243 0 l 243 639 l 14 639 l 49 736 l 590 736 z "},"у":{"ha":639,"x_min":-14,"x_max":653,"o":"m 521 736 l 653 736 l 382 0 q 324 -141 351 -82 q 267 -242 296 -200 q 207 -310 238 -283 q 140 -354 176 -337 q 98 -368 121 -364 q 53 -372 75 -372 q 14 -369 32 -372 q -14 -361 -4 -365 l -14 -247 q 17 -252 -1 -251 q 54 -251 35 -253 q 93 -242 74 -249 q 126 -225 113 -236 q 160 -187 143 -212 q 195 -130 178 -161 q 228 -65 213 -99 q 257 0 244 -31 l -14 736 l 121 736 l 315 174 l 328 174 l 521 736 z "},"ф":{"ha":993,"x_min":49,"x_max":944,"o":"m 944 368 q 918 217 944 288 q 842 95 892 147 q 719 13 792 43 q 556 -17 647 -17 l 556 -340 l 438 -368 l 438 -17 q 274 13 346 -17 q 151 95 201 43 q 75 217 101 147 q 49 368 49 288 q 75 519 49 449 q 151 641 101 589 q 274 723 201 693 q 438 753 346 753 l 438 1014 l 556 1042 l 556 753 q 719 723 647 753 q 842 641 792 693 q 918 519 892 589 q 944 368 944 449 m 826 368 q 810 481 826 428 q 761 572 794 533 q 677 633 728 611 q 556 656 626 656 l 556 81 q 677 103 626 81 q 761 164 728 125 q 810 256 794 203 q 826 368 826 308 m 167 368 q 185 256 167 308 q 237 164 203 203 q 322 103 271 125 q 438 81 372 81 l 438 656 q 322 633 372 656 q 237 572 271 611 q 185 481 203 533 q 167 368 167 428 z "},"х":{"ha":653,"x_min":-7,"x_max":660,"o":"m 646 736 l 394 382 l 660 0 l 521 0 l 332 279 l 322 279 l 132 0 l -7 0 l 257 381 l 7 736 l 146 736 l 322 471 l 332 471 l 507 736 l 646 736 z "},"ц":{"ha":813,"x_min":104,"x_max":792,"o":"m 660 736 l 660 97 l 792 97 l 764 -201 l 667 -201 l 667 0 l 104 0 l 104 736 l 222 736 l 222 97 l 542 97 l 542 736 l 660 736 z "},"ч":{"ha":694,"x_min":42,"x_max":590,"o":"m 42 736 l 160 736 l 160 549 q 165 465 160 499 q 185 409 169 431 q 227 378 200 388 q 299 368 254 368 q 398 383 357 368 q 472 424 439 399 l 472 736 l 590 736 l 590 0 l 472 0 l 472 326 l 465 326 q 389 291 433 311 q 292 271 344 271 q 179 281 226 271 q 101 321 132 290 q 56 409 71 351 q 42 563 42 467 l 42 736 z "},"ш":{"ha":1118,"x_min":104,"x_max":1014,"o":"m 1014 736 l 1014 0 l 104 0 l 104 736 l 222 736 l 222 97 l 500 97 l 500 736 l 618 736 l 618 97 l 896 97 l 896 736 l 1014 736 z "},"щ":{"ha":1167,"x_min":104,"x_max":1146,"o":"m 1014 736 l 1014 97 l 1146 97 l 1118 -201 l 1021 -201 l 1021 0 l 104 0 l 104 736 l 222 736 l 222 97 l 500 97 l 500 736 l 618 736 l 618 97 l 896 97 l 896 736 l 1014 736 z "},"ъ":{"ha":736,"x_min":0,"x_max":708,"o":"m 285 375 l 285 97 l 417 97 q 497 108 464 97 q 550 138 529 119 q 581 182 571 157 q 590 236 590 207 q 581 290 590 265 q 550 334 571 315 q 497 364 529 353 q 417 375 464 375 l 285 375 m 167 0 l 167 639 l 0 639 l 35 736 l 285 736 l 285 472 l 410 472 q 544 455 488 472 q 638 406 601 438 q 691 332 674 375 q 708 236 708 289 q 691 141 708 185 q 638 66 674 97 q 544 17 601 35 q 410 0 488 0 l 167 0 z "},"ы":{"ha":965,"x_min":104,"x_max":861,"o":"m 743 736 l 861 736 l 861 0 l 743 0 l 743 736 m 222 375 l 222 97 l 347 97 q 427 108 394 97 q 481 138 460 119 q 511 182 501 157 q 521 236 521 207 q 511 290 521 265 q 481 334 501 315 q 427 364 460 353 q 347 375 394 375 l 222 375 m 104 0 l 104 736 l 222 736 l 222 472 l 340 472 q 475 455 418 472 q 568 406 532 438 q 622 332 604 375 q 639 236 639 289 q 622 141 639 185 q 568 66 604 97 q 475 17 532 35 q 340 0 418 0 l 104 0 z "},"ь":{"ha":674,"x_min":104,"x_max":653,"o":"m 222 375 l 222 97 l 361 97 q 441 108 408 97 q 494 138 474 119 q 525 182 515 157 q 535 236 535 207 q 525 290 535 265 q 494 334 515 315 q 441 364 474 353 q 361 375 408 375 l 222 375 m 104 0 l 104 736 l 222 736 l 222 472 l 354 472 q 489 455 432 472 q 582 406 546 438 q 635 332 618 375 q 653 236 653 289 q 635 141 653 185 q 582 66 618 97 q 489 17 546 35 q 354 0 432 0 l 104 0 z "},"э":{"ha":729,"x_min":42,"x_max":681,"o":"m 124 197 q 136 178 124 197 q 174 138 149 160 q 240 99 200 117 q 333 81 279 81 q 420 99 381 81 q 489 151 460 118 q 536 228 518 183 q 560 326 554 274 l 278 326 l 313 424 l 558 424 q 533 516 551 474 q 485 590 514 558 q 417 638 456 621 q 333 656 379 656 q 252 639 286 656 q 195 603 218 622 q 161 566 172 583 q 150 549 150 549 l 63 617 q 81 641 64 619 q 132 688 99 663 q 215 733 165 713 q 333 753 265 753 q 475 723 411 753 q 585 641 539 693 q 656 519 631 589 q 681 368 681 449 q 656 217 681 288 q 585 95 631 147 q 475 13 539 43 q 333 -17 411 -17 q 165 22 239 -17 q 42 122 90 60 l 124 197 z "},"ю":{"ha":1035,"x_min":104,"x_max":986,"o":"m 986 368 q 963 217 986 288 q 898 95 940 147 q 795 13 856 43 q 660 -17 735 -17 q 529 10 588 -17 q 429 85 471 38 q 363 199 388 133 q 335 340 339 264 l 222 340 l 222 0 l 104 0 l 104 736 l 222 736 l 222 438 l 338 438 q 374 563 347 506 q 441 663 400 621 q 538 729 482 706 q 660 753 593 753 q 795 723 735 753 q 898 641 856 693 q 963 519 940 589 q 986 368 986 449 m 868 368 q 854 481 868 428 q 813 572 840 533 q 748 633 786 611 q 660 656 710 656 q 572 633 610 656 q 506 572 533 611 q 465 481 479 533 q 451 368 451 428 q 465 256 451 308 q 506 164 479 203 q 572 103 533 125 q 660 81 610 81 q 748 103 710 81 q 813 164 786 125 q 854 256 840 203 q 868 368 868 308 z "},"я":{"ha":694,"x_min":7,"x_max":590,"o":"m 590 736 l 590 0 l 472 0 l 472 278 l 340 278 l 139 0 l 7 0 l 221 290 q 89 369 129 311 q 49 507 49 428 q 64 599 49 557 q 113 671 79 640 q 199 719 146 701 q 326 736 251 736 l 590 736 m 472 375 l 472 639 l 326 639 q 207 602 247 639 q 167 507 167 565 q 207 412 167 449 q 326 375 247 375 l 472 375 z "},"$":{"ha":771,"x_min":63,"x_max":701,"o":"m 572 768 q 544 800 560 782 q 508 835 529 818 q 458 863 486 851 q 393 875 431 875 q 331 866 363 875 q 276 838 300 857 q 238 788 253 818 q 222 715 222 757 q 258 628 222 657 q 347 583 293 599 q 462 554 400 567 q 577 515 524 542 q 666 438 631 488 q 701 299 701 389 q 677 176 701 231 q 610 85 653 122 q 509 27 568 47 q 379 7 450 7 q 258 21 308 7 q 170 56 207 35 q 108 106 133 78 q 63 161 82 133 l 149 240 q 246 144 192 178 q 379 111 300 111 q 454 123 418 111 q 517 159 490 135 q 560 219 544 183 q 576 306 576 256 q 541 397 576 367 q 452 445 506 428 q 337 475 399 463 q 222 514 275 488 q 133 588 168 540 q 97 722 97 635 q 115 824 97 776 q 169 906 133 871 q 262 960 206 940 q 393 979 318 979 q 513 958 464 979 q 592 910 561 936 q 640 861 624 885 q 660 833 656 838 l 572 768 m 333 83 l 444 83 l 444 -139 l 333 -139 l 333 83 m 333 1097 l 444 1097 l 444 889 l 333 889 l 333 1097 z "},"₽":{"ha":903,"x_min":83,"x_max":833,"o":"m 479 507 q 649 559 589 507 q 708 694 708 611 q 649 830 708 778 q 479 882 589 882 l 319 882 l 319 507 l 479 507 m 479 986 q 631 965 565 986 q 742 906 697 944 q 810 813 788 867 q 833 694 833 760 q 742 485 833 564 q 479 406 651 406 l 319 406 l 319 308 l 528 308 l 528 208 l 319 208 l 319 0 l 194 0 l 194 208 l 83 208 l 83 308 l 194 308 l 194 406 l 83 406 l 83 507 l 194 507 l 194 986 l 479 986 z "},"−":{"ha":694,"x_min":49,"x_max":646,"o":"m 646 542 l 646 444 l 49 444 l 49 542 l 646 542 z "},"+":{"ha":694,"x_min":35,"x_max":660,"o":"m 397 819 l 397 542 l 660 542 l 660 444 l 397 444 l 397 167 l 297 167 l 297 444 l 35 444 l 35 542 l 297 542 l 297 819 l 397 819 z "},"<":{"ha":792,"x_min":69,"x_max":722,"o":"m 722 743 l 208 497 l 208 489 l 722 243 l 722 125 l 69 451 l 69 535 l 722 861 l 722 743 z "},">":{"ha":792,"x_min":69,"x_max":722,"o":"m 722 535 l 722 451 l 69 125 l 69 243 l 583 489 l 583 497 l 69 743 l 69 861 l 722 535 z "},"⩽":{"ha":792,"x_min":56,"x_max":708,"o":"m 708 771 l 194 540 l 194 529 l 708 299 l 708 181 l 56 493 l 56 576 l 708 889 l 708 771 m 708 -49 l 56 264 l 56 378 l 708 65 l 708 -49 z "},"⩾":{"ha":778,"x_min":69,"x_max":722,"o":"m 722 576 l 722 493 l 69 181 l 69 299 l 583 529 l 583 540 l 69 771 l 69 889 l 722 576 m 722 378 l 722 264 l 69 -49 l 69 65 l 722 378 z "},"=":{"ha":694,"x_min":49,"x_max":646,"o":"m 646 674 l 646 576 l 49 576 l 49 674 l 646 674 m 646 410 l 646 313 l 49 313 l 49 410 l 646 410 z "},"≠":{"ha":694,"x_min":49,"x_max":646,"o":"m 354 674 l 429 847 l 539 847 l 464 674 l 646 674 l 646 576 l 422 576 l 350 410 l 646 410 l 646 313 l 308 313 l 233 139 l 124 139 l 199 313 l 49 313 l 49 410 l 240 410 l 313 576 l 49 576 l 49 674 l 354 674 z "},"~":{"ha":764,"x_min":56,"x_max":708,"o":"m 708 597 q 692 506 708 546 q 649 441 676 467 q 585 402 622 415 q 507 389 549 389 q 428 405 460 389 q 372 441 397 421 q 319 477 346 461 q 257 493 293 493 q 175 462 204 493 q 146 389 146 431 l 56 389 q 72 481 56 442 q 115 545 88 519 q 178 584 142 571 q 257 597 215 597 q 335 581 304 597 q 392 545 367 565 q 444 509 418 525 q 507 493 471 493 q 589 524 560 493 q 618 597 618 556 l 708 597 z "},"≈":{"ha":736,"x_min":56,"x_max":681,"o":"m 681 604 q 654 578 669 593 q 617 551 639 564 q 565 530 596 539 q 493 521 535 521 q 421 533 451 521 q 363 559 390 544 q 308 585 336 574 q 243 597 279 597 q 162 581 190 597 q 118 549 133 564 l 56 611 q 82 637 67 622 q 119 664 97 651 q 171 685 140 676 q 243 694 201 694 q 315 683 285 694 q 373 656 346 671 q 428 630 400 642 q 493 618 457 618 q 574 635 546 618 q 618 667 603 651 l 681 604 m 681 375 q 654 349 669 364 q 617 322 639 335 q 565 301 596 310 q 493 292 535 292 q 421 303 451 292 q 363 330 390 315 q 308 356 336 344 q 243 368 279 368 q 162 351 190 368 q 118 319 133 335 l 56 382 q 82 408 67 393 q 119 435 97 422 q 171 456 140 447 q 243 465 201 465 q 315 453 285 465 q 373 427 346 442 q 428 401 400 413 q 493 389 457 389 q 574 406 546 389 q 618 438 603 422 l 681 375 z "},"±":{"ha":694,"x_min":42,"x_max":653,"o":"m 397 819 l 397 542 l 653 542 l 653 444 l 397 444 l 397 167 l 297 167 l 297 444 l 42 444 l 42 542 l 297 542 l 297 819 l 397 819 m 653 97 l 653 0 l 42 0 l 42 97 l 653 97 z "},"×":{"ha":667,"x_min":69,"x_max":597,"o":"m 139 757 l 329 563 l 528 757 l 597 688 l 396 493 l 597 299 l 528 229 l 329 424 l 139 229 l 69 299 l 260 493 l 69 688 l 139 757 z "},"÷":{"ha":694,"x_min":49,"x_max":646,"o":"m 646 542 l 646 444 l 49 444 l 49 542 l 646 542 m 444 233 l 344 132 l 243 233 l 344 333 l 444 233 m 444 754 l 344 653 l 243 754 l 344 854 l 444 754 z "},"%":{"ha":931,"x_min":14,"x_max":917,"o":"m 332 0 l 214 0 l 599 986 l 717 986 l 332 0 m 389 792 q 377 711 389 750 q 342 642 365 672 q 283 594 318 613 q 201 576 249 576 q 119 594 154 576 q 61 642 85 613 q 26 711 38 672 q 14 792 14 750 q 26 872 14 833 q 61 941 38 911 q 119 989 85 971 q 201 1007 154 1007 q 283 989 249 1007 q 342 941 318 971 q 377 872 365 911 q 389 792 389 833 m 292 792 q 288 835 292 813 q 273 875 283 857 q 245 905 263 893 q 201 917 228 917 q 158 905 175 917 q 130 875 140 893 q 115 835 119 857 q 111 792 111 813 q 115 749 111 771 q 130 708 119 726 q 158 678 140 690 q 201 667 175 667 q 245 678 228 667 q 273 708 263 690 q 288 749 283 726 q 292 792 292 771 m 917 194 q 905 114 917 153 q 869 45 893 75 q 811 -3 846 15 q 729 -21 776 -21 q 647 -3 682 -21 q 589 45 613 15 q 553 114 565 75 q 542 194 542 153 q 553 275 542 236 q 589 344 565 314 q 647 392 613 374 q 729 410 682 410 q 811 392 776 410 q 869 344 846 374 q 905 275 893 314 q 917 194 917 236 m 819 194 q 815 238 819 215 q 801 278 811 260 q 773 308 790 296 q 729 319 756 319 q 685 308 703 319 q 658 278 668 296 q 643 238 647 260 q 639 194 639 215 q 643 151 639 174 q 658 111 647 129 q 685 81 668 93 q 729 69 703 69 q 773 81 756 69 q 801 111 790 93 q 815 151 811 129 q 819 194 819 174 z "},"^":{"ha":708,"x_min":42,"x_max":667,"o":"m 357 847 l 350 847 l 160 382 l 42 382 l 313 1007 l 396 1007 l 667 382 l 549 382 l 357 847 z "},"°":{"ha":444,"x_min":28,"x_max":417,"o":"m 417 819 q 402 743 417 778 q 361 684 388 708 q 299 646 335 660 q 222 632 264 632 q 145 646 181 632 q 83 684 110 660 q 42 743 57 708 q 28 819 28 778 q 42 896 28 861 q 83 955 57 931 q 145 993 110 979 q 222 1007 181 1007 q 299 993 264 1007 q 361 955 335 979 q 402 896 388 931 q 417 819 417 861 m 326 819 q 295 892 326 861 q 222 924 264 924 q 149 892 181 924 q 118 819 118 861 q 149 747 118 778 q 222 715 181 715 q 295 747 264 715 q 326 819 326 778 z "},"∕":{"ha":896,"x_min":0,"x_max":896,"o":"m 132 -97 l 0 -97 l 763 1056 l 896 1056 l 132 -97 z "},"⋅":{"ha":313,"x_min":49,"x_max":264,"o":"m 264 508 l 157 400 l 49 508 l 157 615 l 264 508 z "},"∞":{"ha":1083,"x_min":14,"x_max":1069,"o":"m 544 556 q 592 606 565 576 q 654 665 619 636 q 732 713 689 693 q 826 733 775 733 q 924 715 879 733 q 1000 665 968 697 q 1051 590 1032 633 q 1069 493 1069 546 q 1051 397 1069 442 q 1000 319 1032 351 q 924 269 968 288 q 826 250 879 250 q 732 271 775 250 q 654 320 689 292 q 592 379 619 349 q 544 431 565 410 l 539 431 q 491 379 518 410 q 429 320 464 349 q 352 271 394 292 q 257 250 310 250 q 160 269 206 250 q 83 319 115 288 q 33 397 51 351 q 14 493 14 442 q 33 590 14 546 q 83 667 51 635 q 160 717 115 699 q 257 736 206 736 q 352 715 310 736 q 429 666 394 694 q 491 607 464 638 q 539 556 518 576 l 544 556 m 826 639 q 769 631 796 639 q 717 604 743 622 q 663 560 692 586 q 597 496 635 533 l 597 490 q 663 426 635 453 q 717 382 692 400 q 769 356 743 364 q 826 347 796 347 q 924 386 889 347 q 958 493 958 425 q 924 600 958 561 q 826 639 889 639 m 257 347 q 315 356 289 347 q 366 382 340 364 q 420 426 392 400 q 486 490 449 453 l 486 496 q 420 560 449 533 q 366 604 392 586 q 315 631 340 622 q 257 639 289 639 q 160 600 194 639 q 125 493 125 561 q 160 386 125 425 q 257 347 194 347 z "},"√":{"ha":819,"x_min":42,"x_max":833,"o":"m 833 1153 l 440 0 l 338 0 l 174 472 l 42 472 l 42 569 l 250 569 l 386 174 l 393 174 l 715 1153 l 833 1153 z "},"∶":{"ha":313,"x_min":49,"x_max":264,"o":"m 264 74 l 157 -35 l 49 74 l 157 181 l 264 74 m 264 650 l 157 542 l 49 650 l 157 757 l 264 650 z "},"℃":{"ha":1335,"x_min":28,"x_max":1286,"o":"m 1286 175 q 1128 31 1226 83 q 908 -21 1029 -21 q 721 19 804 -21 q 579 129 638 60 q 490 292 521 199 q 458 493 458 386 q 490 694 458 600 q 579 857 521 788 q 721 967 638 926 q 908 1007 804 1007 q 1058 982 994 1007 q 1163 926 1121 957 q 1227 868 1206 894 q 1250 839 1249 842 l 1163 771 q 1147 792 1163 771 q 1098 838 1131 813 q 1018 883 1065 863 q 908 903 971 903 q 773 871 833 903 q 670 784 713 839 q 606 654 628 729 q 583 493 583 579 q 606 332 583 407 q 670 202 628 257 q 773 115 713 147 q 908 83 833 83 q 1034 109 979 83 q 1126 166 1089 135 q 1184 223 1164 197 q 1204 250 1204 249 l 1286 175 m 417 819 q 402 743 417 778 q 361 684 388 708 q 299 646 335 660 q 222 632 264 632 q 145 646 181 632 q 83 684 110 660 q 42 743 57 708 q 28 819 28 778 q 42 896 28 861 q 83 955 57 931 q 145 993 110 979 q 222 1007 181 1007 q 299 993 264 1007 q 361 955 335 979 q 402 896 388 931 q 417 819 417 861 m 326 819 q 295 892 326 861 q 222 924 264 924 q 149 892 181 924 q 118 819 118 861 q 149 747 118 778 q 222 715 181 715 q 295 747 264 715 q 326 819 326 778 z "}}}
